<svg width="170" height="85" viewBox="0 0 170 85" fill="none" xmlns="http://www.w3.org/2000/svg">
<path d="M66.576 15.32V17.456H62.136V32H59.4V17.456H54.936V15.32H66.576ZM72.0829 21.08C72.4829 20.28 73.0109 19.664 73.6669 19.232C74.3389 18.784 75.1309 18.56 76.0429 18.56V21.392H75.3469C74.2749 21.392 73.4589 21.664 72.8989 22.208C72.3549 22.752 72.0829 23.696 72.0829 25.04V32H69.3469V18.776H72.0829V21.08ZM77.6458 25.328C77.6458 24 77.9178 22.824 78.4618 21.8C79.0218 20.776 79.7738 19.984 80.7178 19.424C81.6778 18.848 82.7338 18.56 83.8858 18.56C84.9258 18.56 85.8298 18.768 86.5978 19.184C87.3818 19.584 88.0058 20.088 88.4698 20.696V18.776H91.2298V32H88.4698V30.032C88.0058 30.656 87.3738 31.176 86.5738 31.592C85.7738 32.008 84.8618 32.216 83.8378 32.216C82.7018 32.216 81.6618 31.928 80.7178 31.352C79.7738 30.76 79.0218 29.944 78.4618 28.904C77.9178 27.848 77.6458 26.656 77.6458 25.328ZM88.4698 25.376C88.4698 24.464 88.2778 23.672 87.8938 23C87.5258 22.328 87.0378 21.816 86.4298 21.464C85.8218 21.112 85.1658 20.936 84.4618 20.936C83.7578 20.936 83.1018 21.112 82.4938 21.464C81.8858 21.8 81.3898 22.304 81.0058 22.976C80.6378 23.632 80.4538 24.416 80.4538 25.328C80.4538 26.24 80.6378 27.04 81.0058 27.728C81.3898 28.416 81.8858 28.944 82.4938 29.312C83.1178 29.664 83.7738 29.84 84.4618 29.84C85.1658 29.84 85.8218 29.664 86.4298 29.312C87.0378 28.96 87.5258 28.448 87.8938 27.776C88.2778 27.088 88.4698 26.288 88.4698 25.376ZM93.9114 25.376C93.9114 24.016 94.1834 22.824 94.7274 21.8C95.2874 20.76 96.0554 19.96 97.0314 19.4C98.0074 18.84 99.1274 18.56 100.391 18.56C101.991 18.56 103.311 18.944 104.351 19.712C105.407 20.464 106.119 21.544 106.487 22.952H103.535C103.295 22.296 102.911 21.784 102.383 21.416C101.855 21.048 101.191 20.864 100.391 20.864C99.2714 20.864 98.3754 21.264 97.7034 22.064C97.0474 22.848 96.7194 23.952 96.7194 25.376C96.7194 26.8 97.0474 27.912 97.7034 28.712C98.3754 29.512 99.2714 29.912 100.391 29.912C101.975 29.912 103.023 29.216 103.535 27.824H106.487C106.103 29.168 105.383 30.24 104.327 31.04C103.271 31.824 101.959 32.216 100.391 32.216C99.1274 32.216 98.0074 31.936 97.0314 31.376C96.0554 30.8 95.2874 30 94.7274 28.976C94.1834 27.936 93.9114 26.736 93.9114 25.376ZM121.334 25.016C121.334 25.48 121.302 25.912 121.238 26.312H111.11C111.19 27.416 111.582 28.296 112.286 28.952C112.99 29.592 113.862 29.912 114.902 29.912C116.374 29.912 117.414 29.296 118.022 28.064H120.974C120.574 29.28 119.846 30.28 118.79 31.064C117.75 31.832 116.454 32.216 114.902 32.216C113.638 32.216 112.502 31.936 111.494 31.376C110.502 30.8 109.718 30 109.142 28.976C108.582 27.936 108.302 26.736 108.302 25.376C108.302 24.016 108.574 22.824 109.118 21.8C109.678 20.76 110.454 19.96 111.446 19.4C112.454 18.84 113.606 18.56 114.902 18.56C116.15 18.56 117.262 18.832 118.238 19.376C119.214 19.92 119.974 20.68 120.518 21.656C121.062 22.632 121.334 23.752 121.334 25.016ZM118.478 24.344C118.462 23.272 118.102 22.424 117.398 21.8C116.71 21.176 115.838 20.864 114.782 20.864C113.822 20.864 112.998 21.176 112.31 21.8C111.638 22.424 111.246 23.272 111.134 24.344H118.478ZM126.763 14.24V32H124.027V14.24H126.763ZM142.475 25.016C142.475 25.48 142.443 25.912 142.379 26.312H132.251C132.331 27.416 132.723 28.296 133.427 28.952C134.131 29.592 135.003 29.912 136.043 29.912C137.515 29.912 138.555 29.296 139.163 28.064H142.115C141.715 29.28 140.987 30.28 139.931 31.064C138.891 31.832 137.595 32.216 136.043 32.216C134.779 32.216 133.643 31.936 132.635 31.376C131.643 30.8 130.859 30 130.283 28.976C129.723 27.936 129.443 26.736 129.443 25.376C129.443 24.016 129.715 22.824 130.259 21.8C130.819 20.76 131.595 19.96 132.587 19.4C133.595 18.84 134.747 18.56 136.043 18.56C137.291 18.56 138.403 18.832 139.379 19.376C140.355 19.92 141.115 20.68 141.659 21.656C142.203 22.632 142.475 23.752 142.475 25.016ZM139.619 24.344C139.603 23.272 139.243 22.424 138.539 21.8C137.851 21.176 136.979 20.864 135.923 20.864C134.963 20.864 134.139 21.176 133.451 21.8C132.779 22.424 132.387 23.272 132.275 24.344H139.619ZM149.919 32.216C148.895 32.216 147.975 32.032 147.159 31.664C146.343 31.28 145.695 30.768 145.215 30.128C144.735 29.472 144.479 28.744 144.447 27.944H147.279C147.327 28.552 147.591 29.056 148.071 29.456C148.567 29.856 149.183 30.056 149.919 30.056C150.687 30.056 151.279 29.904 151.695 29.6C152.127 29.28 152.343 28.856 152.343 28.328C152.343 27.848 152.103 27.48 151.623 27.224C151.143 26.968 150.399 26.712 149.391 26.456C148.415 26.184 147.615 25.928 146.991 25.688C146.383 25.432 145.855 25.048 145.407 24.536C144.959 24.008 144.735 23.328 144.735 22.496C144.735 21.776 144.935 21.12 145.335 20.528C145.735 19.92 146.311 19.44 147.063 19.088C147.831 18.736 148.727 18.56 149.751 18.56C151.255 18.56 152.463 18.944 153.375 19.712C154.303 20.464 154.799 21.496 154.863 22.808H152.127C152.079 22.168 151.839 21.664 151.407 21.296C150.975 20.912 150.391 20.72 149.655 20.72C148.935 20.72 148.383 20.872 147.999 21.176C147.615 21.464 147.423 21.856 147.423 22.352C147.423 22.704 147.551 23 147.807 23.24C148.063 23.48 148.383 23.672 148.767 23.816C149.151 23.944 149.695 24.104 150.399 24.296C151.359 24.552 152.143 24.808 152.751 25.064C153.359 25.32 153.879 25.712 154.311 26.24C154.743 26.752 154.959 27.424 154.959 28.256C154.959 29.008 154.759 29.688 154.359 30.296C153.959 30.888 153.375 31.36 152.607 31.712C151.855 32.048 150.959 32.216 149.919 32.216ZM162.74 32.216C161.716 32.216 160.796 32.032 159.98 31.664C159.164 31.28 158.516 30.768 158.036 30.128C157.556 29.472 157.3 28.744 157.268 27.944H160.1C160.148 28.552 160.412 29.056 160.892 29.456C161.388 29.856 162.004 30.056 162.74 30.056C163.508 30.056 164.1 29.904 164.516 29.6C164.948 29.28 165.164 28.856 165.164 28.328C165.164 27.848 164.924 27.48 164.444 27.224C163.964 26.968 163.22 26.712 162.212 26.456C161.236 26.184 160.436 25.928 159.812 25.688C159.204 25.432 158.676 25.048 158.228 24.536C157.78 24.008 157.556 23.328 157.556 22.496C157.556 21.776 157.756 21.12 158.156 20.528C158.556 19.92 159.132 19.44 159.884 19.088C160.652 18.736 161.548 18.56 162.572 18.56C164.076 18.56 165.284 18.944 166.196 19.712C167.124 20.464 167.62 21.496 167.684 22.808H164.948C164.9 22.168 164.66 21.664 164.228 21.296C163.796 20.912 163.212 20.72 162.476 20.72C161.756 20.72 161.204 20.872 160.82 21.176C160.436 21.464 160.244 21.856 160.244 22.352C160.244 22.704 160.372 23 160.628 23.24C160.884 23.48 161.204 23.672 161.588 23.816C161.972 23.944 162.516 24.104 163.22 24.296C164.18 24.552 164.964 24.808 165.572 25.064C166.18 25.32 166.7 25.712 167.132 26.24C167.564 26.752 167.78 27.424 167.78 28.256C167.78 29.008 167.58 29.688 167.18 30.296C166.78 30.888 166.196 31.36 165.428 31.712C164.676 32.048 163.78 32.216 162.74 32.216Z" fill="#254C20"/>
<path d="M23.7471 4.36816C27.9908 4.19863 32.2107 5.82898 35.4014 9.23047C38.6035 12.6442 40.6855 17.7441 40.8721 24.3896L40.8965 25.6504C40.923 28.5197 40.7341 30.9077 40.1631 33.1084C39.5441 35.4938 38.4985 37.5746 36.9238 39.7773L36.6016 40.2197C35.3271 41.9396 34.2631 43.2922 33.4189 44.3945C32.561 45.515 31.9401 46.3649 31.4678 47.1621C30.6415 48.5566 30.2225 49.8635 30.0459 52.3145L30.0137 52.8203C29.9115 54.6597 30.4904 56.6388 31.1006 59.2695C31.6448 61.6158 32.1556 64.3229 31.7305 67.249L31.6328 67.8369C30.903 71.7292 29.6791 74.8103 27.5928 76.9189C25.5868 78.9462 22.9743 79.8876 19.8125 80.0195L19.1729 80.0352C15.2368 80.0656 12.3591 79.0461 10.3213 76.752C8.50397 74.7058 7.54574 71.8399 6.83105 68.5293L6.69141 67.8613C6.15721 65.2341 6.25695 62.7392 6.42188 60.3926C6.5798 58.1456 6.78981 56.0819 6.68652 53.9189L6.66211 53.4854C6.35018 48.8558 5.78414 45.1836 5.28418 41.5459C4.7849 37.9131 4.35549 34.3373 4.35547 30.0293L4.3623 29.3916C4.51398 22.8205 6.99589 16.7173 10.499 12.2012C14.0698 7.59798 18.9301 4.37638 23.7471 4.36816Z" stroke="#254C20" stroke-width="3.28991" stroke-linejoin="round"/>
<path d="M20.8611 67.1925L18.8872 68.8374C15.0226 64.4711 12.2158 57.8289 15.5973 41.8602C14.5201 38.2971 14.7971 33.2071 16.2552 30.0165C18.8238 24.3962 20.2843 22.5805 27.7699 16.5278C30.0598 21.4076 30.7813 25.9496 29.7439 30.6745C28.386 36.8589 25.1051 38.8502 20.5321 41.8602C21.2361 36.3448 22.4291 32.8454 24.809 27.0556C21.0595 30.3888 19.1739 33.3621 17.9002 40.2152C16.9658 48.3858 16.8705 52.3493 17.2422 58.6387L20.8611 67.1925Z" fill="#254C20" stroke="#234C22" stroke-width="0.657983" stroke-linejoin="round"/>
</svg>
