<svg width="229" height="315" viewBox="0 0 229 315" fill="none" xmlns="http://www.w3.org/2000/svg">
<path d="M113.856 10.2803C124.842 9.83135 135.768 14.0493 144.027 22.8545C152.308 31.6823 157.694 44.8696 158.176 62.0547L158.216 63.7031C158.372 71.848 157.925 78.5013 156.343 84.5986C154.742 90.7673 152.038 96.1494 147.966 101.846L147.133 102.989C143.837 107.437 141.086 110.935 138.903 113.785C136.685 116.682 135.079 118.879 133.857 120.94C131.721 124.547 130.636 127.926 130.18 134.265L130.097 135.573C129.833 140.329 131.329 145.446 132.906 152.248C134.36 158.517 135.724 165.784 134.419 173.642L134.284 174.404C132.397 184.469 129.231 192.435 123.836 197.888C118.476 203.305 111.441 205.726 102.895 205.935L102.062 205.948C91.884 206.027 84.4443 203.388 79.1748 197.455C74.4755 192.164 71.9965 184.755 70.1484 176.194L69.7871 174.468C68.4056 167.674 68.6633 161.223 69.0898 155.154C69.4982 149.344 70.0424 144.007 69.7754 138.414L69.7109 137.292C68.9043 125.32 67.4423 115.824 66.1494 106.417C64.8583 97.0226 63.7461 87.7762 63.7461 76.6357L63.751 75.8115C63.9511 58.5062 70.428 42.4017 79.6328 30.5352C88.8576 18.643 101.412 10.3173 113.856 10.2803Z" stroke="#B6C578" stroke-width="8.50735" stroke-linejoin="round"/>
<path d="M106.429 172.737L101.325 176.99C91.3315 165.699 84.0734 148.524 92.8175 107.23C90.0321 98.0165 90.7483 84.8543 94.519 76.6038C101.161 62.0705 104.938 57.3751 124.295 41.7236C130.216 54.3421 132.082 66.0874 129.399 78.3052C125.888 94.2974 117.404 99.4469 105.579 107.23C107.399 92.968 110.484 83.9191 116.638 68.9471C106.942 77.5667 102.066 85.2551 98.7727 102.977C96.3565 124.105 96.11 134.354 97.0712 150.618L106.429 172.737Z" fill="#B6C578" stroke="#B6C578" stroke-width="1.70147" stroke-linejoin="round"/>
<path d="M23.736 285.74C22.776 285.74 22.008 285.468 21.432 284.924C20.888 284.348 20.616 283.596 20.616 282.668V256.748H11.88C9.96 256.748 9 255.9 9 254.204C9 252.508 9.96 251.66 11.88 251.66H35.544C37.464 251.66 38.424 252.508 38.424 254.204C38.424 255.9 37.464 256.748 35.544 256.748H26.808V282.668C26.808 283.596 26.52 284.348 25.944 284.924C25.4 285.468 24.664 285.74 23.736 285.74ZM50.9115 261.548C51.7435 261.484 52.3995 261.66 52.8795 262.076C53.3595 262.492 53.5995 263.116 53.5995 263.948C53.5995 264.812 53.3915 265.452 52.9755 265.868C52.5595 266.284 51.8075 266.556 50.7195 266.684L49.2795 266.828C47.3915 267.02 45.9995 267.66 45.1035 268.748C44.2395 269.836 43.8075 271.196 43.8075 272.828V282.908C43.8075 283.836 43.5195 284.556 42.9435 285.068C42.3675 285.548 41.6475 285.788 40.7835 285.788C39.9195 285.788 39.1995 285.548 38.6235 285.068C38.0795 284.556 37.8075 283.836 37.8075 282.908V264.332C37.8075 263.436 38.0795 262.748 38.6235 262.268C39.1995 261.788 39.9035 261.548 40.7355 261.548C41.5675 261.548 42.2395 261.788 42.7515 262.268C43.2635 262.716 43.5195 263.372 43.5195 264.236V266.156C44.1275 264.748 45.0235 263.66 46.2075 262.892C47.4235 262.124 48.7675 261.692 50.2395 261.596L50.9115 261.548ZM66.2648 261.452C69.5288 261.452 71.9448 262.268 73.5128 263.9C75.1128 265.5 75.9128 267.948 75.9128 271.244V282.956C75.9128 283.82 75.6568 284.508 75.1448 285.02C74.6328 285.5 73.9288 285.74 73.0328 285.74C72.2008 285.74 71.5128 285.484 70.9688 284.972C70.4568 284.46 70.2008 283.788 70.2008 282.956V281.9C69.6568 283.148 68.7928 284.124 67.6088 284.828C66.4568 285.532 65.1128 285.884 63.5768 285.884C62.0088 285.884 60.5848 285.564 59.3047 284.924C58.0248 284.284 57.0168 283.404 56.2808 282.284C55.5448 281.164 55.1768 279.916 55.1768 278.54C55.1768 276.812 55.6088 275.452 56.4728 274.46C57.3688 273.468 58.8088 272.748 60.7928 272.3C62.7768 271.852 65.5128 271.628 69.0008 271.628H70.2008V270.524C70.2008 268.956 69.8648 267.82 69.1928 267.116C68.5208 266.38 67.4328 266.012 65.9288 266.012C65.0008 266.012 64.0568 266.156 63.0968 266.444C62.1368 266.7 61.0008 267.084 59.6888 267.596C58.8568 268.012 58.2488 268.22 57.8648 268.22C57.2888 268.22 56.8088 268.012 56.4248 267.596C56.0728 267.18 55.8968 266.636 55.8968 265.964C55.8968 265.42 56.0248 264.956 56.2808 264.572C56.5688 264.156 57.0328 263.772 57.6728 263.42C58.7928 262.812 60.1208 262.332 61.6568 261.98C63.2248 261.628 64.7608 261.452 66.2648 261.452ZM64.7768 281.564C66.3768 281.564 67.6728 281.036 68.6648 279.98C69.6888 278.892 70.2008 277.5 70.2008 275.804V274.796H69.3368C67.1928 274.796 65.5288 274.892 64.3448 275.084C63.1608 275.276 62.3128 275.612 61.8008 276.092C61.2888 276.572 61.0328 277.228 61.0328 278.06C61.0328 279.084 61.3848 279.932 62.0888 280.604C62.8248 281.244 63.7208 281.564 64.7768 281.564ZM92.4266 285.884C90.0906 285.884 88.0266 285.388 86.2346 284.396C84.4746 283.404 83.1146 281.996 82.1546 280.172C81.1946 278.348 80.7146 276.22 80.7146 273.788C80.7146 271.356 81.2106 269.212 82.2026 267.356C83.2266 265.468 84.6506 264.012 86.4746 262.988C88.2986 261.964 90.3946 261.452 92.7626 261.452C94.0106 261.452 95.2586 261.628 96.5066 261.98C97.7866 262.332 98.9066 262.812 99.8666 263.42C100.891 264.092 101.403 264.94 101.403 265.964C101.403 266.668 101.227 267.244 100.875 267.692C100.555 268.108 100.123 268.316 99.5786 268.316C99.2266 268.316 98.8586 268.236 98.4746 268.076C98.0906 267.916 97.7066 267.724 97.3226 267.5C96.6186 267.084 95.9466 266.764 95.3066 266.54C94.6666 266.284 93.9306 266.156 93.0986 266.156C91.1146 266.156 89.5786 266.812 88.4906 268.124C87.4346 269.404 86.9066 271.26 86.9066 273.692C86.9066 276.092 87.4346 277.948 88.4906 279.26C89.5786 280.54 91.1146 281.18 93.0986 281.18C93.8986 281.18 94.6026 281.068 95.2106 280.844C95.8506 280.588 96.5546 280.252 97.3226 279.836C97.8026 279.548 98.2186 279.34 98.5706 279.212C98.9226 279.052 99.2746 278.972 99.6266 278.972C100.139 278.972 100.571 279.196 100.923 279.644C101.275 280.092 101.451 280.652 101.451 281.324C101.451 281.868 101.323 282.348 101.067 282.764C100.843 283.148 100.459 283.5 99.9146 283.82C98.9226 284.46 97.7706 284.972 96.4586 285.356C95.1466 285.708 93.8026 285.884 92.4266 285.884ZM124.024 279.068C124.568 279.068 125 279.276 125.32 279.692C125.672 280.108 125.848 280.668 125.848 281.372C125.848 282.364 125.256 283.196 124.072 283.868C122.984 284.476 121.752 284.972 120.376 285.356C119 285.708 117.688 285.884 116.44 285.884C112.664 285.884 109.672 284.796 107.464 282.62C105.256 280.444 104.152 277.468 104.152 273.692C104.152 271.292 104.632 269.164 105.592 267.308C106.552 265.452 107.896 264.012 109.624 262.988C111.384 261.964 113.368 261.452 115.576 261.452C117.688 261.452 119.528 261.916 121.096 262.844C122.664 263.772 123.88 265.084 124.744 266.78C125.608 268.476 126.04 270.476 126.04 272.78C126.04 274.156 125.432 274.844 124.216 274.844H110.056C110.248 277.052 110.872 278.684 111.928 279.74C112.984 280.764 114.52 281.276 116.536 281.276C117.56 281.276 118.456 281.148 119.224 280.892C120.024 280.636 120.92 280.284 121.912 279.836C122.872 279.324 123.576 279.068 124.024 279.068ZM115.72 265.676C114.088 265.676 112.776 266.188 111.784 267.212C110.824 268.236 110.248 269.708 110.056 271.628H120.904C120.84 269.676 120.36 268.204 119.464 267.212C118.568 266.188 117.32 265.676 115.72 265.676ZM133.924 285.788C133.06 285.788 132.34 285.548 131.764 285.068C131.22 284.556 130.948 283.836 130.948 282.908V254.252C130.948 253.324 131.22 252.62 131.764 252.14C132.34 251.66 133.06 251.42 133.924 251.42C134.788 251.42 135.508 251.66 136.084 252.14C136.66 252.62 136.948 253.324 136.948 254.252V282.908C136.948 283.836 136.66 284.556 136.084 285.068C135.508 285.548 134.788 285.788 133.924 285.788ZM161.712 279.068C162.256 279.068 162.688 279.276 163.008 279.692C163.36 280.108 163.536 280.668 163.536 281.372C163.536 282.364 162.944 283.196 161.76 283.868C160.672 284.476 159.44 284.972 158.064 285.356C156.688 285.708 155.376 285.884 154.128 285.884C150.352 285.884 147.36 284.796 145.152 282.62C142.944 280.444 141.84 277.468 141.84 273.692C141.84 271.292 142.32 269.164 143.28 267.308C144.24 265.452 145.584 264.012 147.312 262.988C149.072 261.964 151.056 261.452 153.264 261.452C155.376 261.452 157.216 261.916 158.784 262.844C160.352 263.772 161.568 265.084 162.432 266.78C163.296 268.476 163.728 270.476 163.728 272.78C163.728 274.156 163.12 274.844 161.904 274.844H147.744C147.936 277.052 148.56 278.684 149.616 279.74C150.672 280.764 152.208 281.276 154.224 281.276C155.248 281.276 156.144 281.148 156.912 280.892C157.712 280.636 158.608 280.284 159.6 279.836C160.56 279.324 161.264 279.068 161.712 279.068ZM153.408 265.676C151.776 265.676 150.464 266.188 149.472 267.212C148.512 268.236 147.936 269.708 147.744 271.628H158.592C158.528 269.676 158.048 268.204 157.152 267.212C156.256 266.188 155.008 265.676 153.408 265.676ZM177.132 285.884C173.644 285.884 170.828 285.196 168.684 283.82C167.66 283.212 167.148 282.348 167.148 281.228C167.148 280.588 167.324 280.076 167.676 279.692C168.028 279.276 168.46 279.068 168.972 279.068C169.516 279.068 170.268 279.324 171.228 279.836C172.252 280.316 173.18 280.684 174.012 280.94C174.876 281.196 175.964 281.324 177.276 281.324C178.62 281.324 179.66 281.1 180.396 280.652C181.164 280.204 181.548 279.58 181.548 278.78C181.548 278.236 181.388 277.804 181.068 277.484C180.78 277.164 180.236 276.876 179.436 276.62C178.668 276.332 177.484 276.012 175.884 275.66C173.036 275.084 170.988 274.268 169.74 273.212C168.524 272.156 167.916 270.7 167.916 268.844C167.916 267.436 168.332 266.172 169.164 265.052C169.996 263.9 171.132 263.02 172.572 262.412C174.044 261.772 175.708 261.452 177.564 261.452C178.908 261.452 180.204 261.628 181.452 261.98C182.7 262.3 183.82 262.78 184.812 263.42C185.836 264.06 186.348 264.908 186.348 265.964C186.348 266.604 186.172 267.148 185.82 267.596C185.468 268.012 185.036 268.22 184.524 268.22C184.172 268.22 183.82 268.156 183.468 268.028C183.148 267.868 182.732 267.644 182.22 267.356C181.292 266.876 180.492 266.524 179.82 266.3C179.148 266.044 178.316 265.916 177.324 265.916C176.14 265.916 175.196 266.156 174.492 266.636C173.82 267.116 173.484 267.772 173.484 268.604C173.484 269.404 173.836 270.012 174.54 270.428C175.244 270.844 176.604 271.26 178.62 271.676C180.764 272.124 182.444 272.636 183.66 273.212C184.876 273.788 185.74 274.508 186.252 275.372C186.796 276.236 187.068 277.34 187.068 278.684C187.068 280.86 186.156 282.604 184.332 283.916C182.54 285.228 180.14 285.884 177.132 285.884ZM200.429 285.884C196.941 285.884 194.125 285.196 191.98 283.82C190.957 283.212 190.445 282.348 190.445 281.228C190.445 280.588 190.621 280.076 190.973 279.692C191.325 279.276 191.757 279.068 192.269 279.068C192.813 279.068 193.565 279.324 194.525 279.836C195.549 280.316 196.477 280.684 197.309 280.94C198.173 281.196 199.261 281.324 200.573 281.324C201.917 281.324 202.957 281.1 203.693 280.652C204.461 280.204 204.845 279.58 204.845 278.78C204.845 278.236 204.685 277.804 204.365 277.484C204.077 277.164 203.533 276.876 202.733 276.62C201.965 276.332 200.781 276.012 199.181 275.66C196.333 275.084 194.285 274.268 193.037 273.212C191.821 272.156 191.213 270.7 191.213 268.844C191.213 267.436 191.629 266.172 192.461 265.052C193.293 263.9 194.429 263.02 195.868 262.412C197.341 261.772 199.005 261.452 200.861 261.452C202.205 261.452 203.501 261.628 204.749 261.98C205.997 262.3 207.117 262.78 208.109 263.42C209.133 264.06 209.645 264.908 209.645 265.964C209.645 266.604 209.469 267.148 209.117 267.596C208.765 268.012 208.333 268.22 207.821 268.22C207.469 268.22 207.117 268.156 206.765 268.028C206.445 267.868 206.029 267.644 205.517 267.356C204.589 266.876 203.789 266.524 203.117 266.3C202.445 266.044 201.613 265.916 200.621 265.916C199.437 265.916 198.493 266.156 197.789 266.636C197.117 267.116 196.781 267.772 196.781 268.604C196.781 269.404 197.133 270.012 197.837 270.428C198.541 270.844 199.901 271.26 201.917 271.676C204.061 272.124 205.741 272.636 206.957 273.212C208.173 273.788 209.037 274.508 209.549 275.372C210.093 276.236 210.365 277.34 210.365 278.684C210.365 280.86 209.453 282.604 207.629 283.916C205.837 285.228 203.437 285.884 200.429 285.884Z" fill="#B6C578"/>
</svg>
