<svg width="103" height="206" viewBox="0 0 103 206" fill="none" xmlns="http://www.w3.org/2000/svg">
<path d="M54.3611 4.75732C65.3468 4.30841 76.2724 8.52635 84.532 17.3315C92.8126 26.1593 98.1982 39.3466 98.6804 56.5317L98.7205 58.1802C98.8767 66.3251 98.4295 72.9783 96.8474 79.0757C95.2468 85.2444 92.5427 90.6264 88.4705 96.3228L87.6375 97.4663C84.3419 101.914 81.5908 105.412 79.408 108.262C77.1895 111.159 75.5835 113.356 74.3621 115.417C72.2254 119.024 71.1409 122.403 70.6843 128.742L70.6013 130.05C70.3372 134.806 71.8331 139.923 73.4109 146.725C74.865 152.995 76.2291 160.261 74.9236 168.119L74.7888 168.881C72.9016 178.946 69.7356 186.912 64.3406 192.365C58.9803 197.782 51.9459 200.203 43.3992 200.412L42.5671 200.425C32.3887 200.504 24.949 197.865 19.6794 191.932C14.9802 186.641 12.5012 179.232 10.6531 170.671L10.2917 168.945C8.9102 162.151 9.16798 155.7 9.59448 149.631C10.0029 143.821 10.547 138.484 10.28 132.891L10.2156 131.769C9.40894 119.797 7.9469 110.301 6.65405 100.894C5.36294 91.4997 4.25073 82.2532 4.25073 71.1128L4.25562 70.2886C4.45571 52.9833 10.9326 36.8787 20.1375 25.0122C29.3622 13.12 41.9164 4.79431 54.3611 4.75732Z" stroke="#B6C578" stroke-width="8.50735" stroke-linejoin="round"/>
<path d="M46.9342 167.214L41.8297 171.467C31.8363 160.177 24.5783 143.001 33.3224 101.707C30.537 92.4935 31.2532 79.3314 35.0239 71.0808C41.6659 56.5475 45.4424 51.8522 64.7996 36.2007C70.7209 48.8192 72.5866 60.5644 69.904 72.7823C66.3926 88.7745 57.9086 93.9239 46.0834 101.707C47.9039 87.445 50.9888 78.3962 57.143 63.4242C47.447 72.0437 42.5712 79.7322 39.2775 97.4536C36.8614 118.582 36.6149 128.831 37.5761 145.095L46.9342 167.214Z" fill="#B6C578" stroke="#B6C578" stroke-width="1.70147" stroke-linejoin="round"/>
</svg>
