<svg width="42" height="41" viewBox="0 0 42 41" fill="none" xmlns="http://www.w3.org/2000/svg">
<path d="M23.6136 17.5082L38.8968 23.6987C38.9789 23.732 39.0445 23.795 39.081 23.8734L39.107 23.9564L39.7789 27.5788C39.8253 27.8294 39.5938 28.0425 39.3479 27.9756L22.0065 23.2506C21.8222 23.2004 21.7137 23.0104 21.7638 22.8262L23.1501 17.7382C23.1977 17.5634 23.3695 17.4586 23.5403 17.4873L23.6136 17.5082Z" fill="#265227" stroke="#265227" stroke-width="0.384291"/>
<path d="M18.3863 17.4819L3.10309 23.6724C3.02097 23.7056 2.95539 23.7686 2.9189 23.847L2.89293 23.93L2.22098 27.5524C2.1746 27.803 2.40607 28.0161 2.65196 27.9492L19.9934 23.2242C20.1776 23.174 20.2861 22.984 20.2361 22.7998L18.8498 17.7119C18.8021 17.537 18.6304 17.4323 18.4595 17.4609L18.3863 17.4819Z" fill="#265227" stroke="#265227" stroke-width="0.384291"/>
<path d="M20.6244 33.5601L29.3685 35.8052C29.415 35.8171 29.4549 35.8463 29.4808 35.8853L29.5023 35.9272L30.9701 40.0327C31.0141 40.1559 30.9261 40.2803 30.8051 40.2896L30.7513 40.2856L20.6888 38.2759C20.6515 38.2685 20.6135 38.2651 20.5756 38.2651L20.4613 38.2769L10.6088 40.2866C10.4824 40.3122 10.3729 40.21 10.3783 40.0903L10.3881 40.0376L11.7474 35.9292C11.7628 35.8827 11.7954 35.8449 11.8373 35.8218L11.8812 35.8032L20.5277 33.5601C20.5434 33.556 20.5595 33.5542 20.5756 33.5542L20.6244 33.5601Z" fill="#265227" stroke="#265227" stroke-width="0.384291"/>
<path d="M20.5907 0.192383C22.4346 0.192494 23.9296 1.6873 23.9296 3.53125V35.1182H17.2518V3.53125C17.2518 1.68723 18.7467 0.192383 20.5907 0.192383Z" fill="#265227" stroke="#265227" stroke-width="0.384291"/>
</svg>
