<svg width="50" height="48" viewBox="0 0 50 48" fill="none" xmlns="http://www.w3.org/2000/svg">
<path d="M2.00014 6.5C2.00056 17.1888 2.00001 31.5001 2 41.5C2 43.025 4.02055 44.3699 5.5 44C9.5 43 11 42.5 15 42.5C19.5 42.5 25.9722 45.9999 30.4999 45.9999L43.9999 44.0001C46.6948 43.0621 47.9999 42.0001 47.9999 39.6782V6.30243C47.4681 2.59662 46.4701 1.94318 43.4999 2.50012L29.9999 5.50012C26.9998 5.50037 16.4999 2 14.4999 2C12.4999 2 2.00004 4 2.00014 6.5Z" stroke="#265327" stroke-width="2"/>
<path d="M39.0496 11C41.3229 18.0754 40.2756 21.9873 36.0496 24.5C35.3783 24.8992 33.7509 24.7068 33.0496 24C32.7367 23.6846 37.0088 16.5252 36.5496 16C35.6189 14.9353 33.2111 19.5433 31.0496 25C26.3415 21.0864 30.0496 13.5 39.0496 11Z" fill="#265327" stroke="#245325" stroke-width="0.2" stroke-linejoin="round"/>
<path d="M1 37.7644C7.94264 37.3722 10.002 35.0902 9 25.7644C7.71061 13.7642 18 11.7645 19 25.7644C20.0386 40.3048 33.5 40.7642 33.5 25.7644C33.5 24.3429 35 22.2644 35 22.2644" stroke="#265327" stroke-width="2"/>
</svg>
