<svg width="34" height="46" viewBox="0 0 34 46" fill="none" xmlns="http://www.w3.org/2000/svg">
<path d="M1.1665 31.3335V11.3335C1.1665 5.81065 5.64365 1.3335 11.1665 1.3335H22.8332C28.356 1.3335 32.8332 5.81065 32.8332 11.3335V31.3335C32.8332 35.0154 29.8484 38.0002 26.1665 38.0002H7.83317C4.15127 38.0002 1.1665 35.0154 1.1665 31.3335Z" fill="#373737" stroke="#373737" stroke-width="0.833333"/>
<path d="M26.1667 9.6665H7.83333C5.99238 9.6665 4.5 11.1589 4.5 12.9998V17.1665C4.5 19.0075 5.99239 20.4998 7.83333 20.4998H26.1667C28.0076 20.4998 29.5 19.0075 29.5 17.1665V12.9998C29.5 11.1589 28.0076 9.6665 26.1667 9.6665Z" fill="#F5F2EB" stroke="#373737" stroke-width="0.833333"/>
<circle cx="8.6665" cy="30.5" r="2.5" fill="#F5F2EB"/>
<circle cx="25.3333" cy="30.5" r="2.5" fill="#F5F2EB"/>
<path d="M2.89395 42.0757L6.22728 37.0757C6.53639 36.612 7.05678 36.3335 7.61403 36.3335H8.05231C9.38347 36.3335 10.1775 37.8171 9.43906 38.9247L6.10573 43.9247C5.79662 44.3883 5.27623 44.6668 4.71898 44.6668H4.2807C2.94954 44.6668 2.15555 43.1833 2.89395 42.0757Z" fill="#373737" stroke="#373737" stroke-width="0.833333"/>
<path d="M31.1058 42.0757L27.7725 37.0757C27.4634 36.612 26.943 36.3335 26.3857 36.3335H25.9474C24.6163 36.3335 23.8223 37.8171 24.5607 38.9247L27.894 43.9247C28.2031 44.3883 28.7235 44.6668 29.2808 44.6668H29.7191C31.0502 44.6668 31.8442 43.1833 31.1058 42.0757Z" fill="#373737" stroke="#373737" stroke-width="0.833333"/>
</svg>
