<svg width="71" height="71" viewBox="0 0 71 71" fill="none" xmlns="http://www.w3.org/2000/svg">
<circle cx="35.6667" cy="35.9995" r="35" fill="#BACDB1"/>
<path d="M20 43.6665V23.6665C20 18.1437 24.4771 13.6665 30 13.6665H41.6667C47.1895 13.6665 51.6667 18.1437 51.6667 23.6665V43.6665C51.6667 47.3484 48.6819 50.3332 45 50.3332H26.6667C22.9848 50.3332 20 47.3484 20 43.6665Z" fill="#265227" stroke="#265227" stroke-width="0.833333"/>
<path d="M45.0002 21.9995H26.6668C24.8259 21.9995 23.3335 23.4919 23.3335 25.3328V29.4995C23.3335 31.3405 24.8259 32.8328 26.6668 32.8328H45.0002C46.8411 32.8328 48.3335 31.3405 48.3335 29.4995V25.3328C48.3335 23.4919 46.8411 21.9995 45.0002 21.9995Z" fill="#BACDB1" stroke="#265227" stroke-width="0.833333"/>
<circle cx="27.5" cy="42.833" r="2.5" fill="#BACDB1"/>
<circle cx="44.1667" cy="42.833" r="2.5" fill="#BACDB1"/>
<path d="M21.7274 54.4087L25.0608 49.4087C25.3699 48.945 25.8903 48.6665 26.4475 48.6665H26.8858C28.217 48.6665 29.011 50.1501 28.2726 51.2577L24.9392 56.2577C24.6301 56.7213 24.1097 56.9998 23.5525 56.9998H23.1142C21.783 56.9998 20.9891 55.5163 21.7274 54.4087Z" fill="#265227" stroke="#265227" stroke-width="0.833333"/>
<path d="M49.9393 54.4087L46.606 49.4087C46.2969 48.945 45.7765 48.6665 45.2192 48.6665H44.7809C43.4498 48.6665 42.6558 50.1501 43.3942 51.2577L46.7275 56.2577C47.0366 56.7213 47.557 56.9998 48.1143 56.9998H48.5526C49.8837 56.9998 50.6777 55.5163 49.9393 54.4087Z" fill="#265227" stroke="#265227" stroke-width="0.833333"/>
</svg>
