<svg width="34" height="45" viewBox="0 0 34 45" fill="none" xmlns="http://www.w3.org/2000/svg">
<path d="M1.1665 31V11C1.1665 5.47715 5.64365 1 11.1665 1H22.8332C28.356 1 32.8332 5.47716 32.8332 11V31C32.8332 34.6819 29.8484 37.6667 26.1665 37.6667H7.83317C4.15127 37.6667 1.1665 34.6819 1.1665 31Z" fill="#265227" stroke="#265227" stroke-width="0.833333"/>
<path d="M26.1667 9.33301H7.83333C5.99238 9.33301 4.5 10.8254 4.5 12.6663V16.833C4.5 18.674 5.99239 20.1663 7.83333 20.1663H26.1667C28.0076 20.1663 29.5 18.674 29.5 16.833V12.6663C29.5 10.8254 28.0076 9.33301 26.1667 9.33301Z" fill="#BACDB1" stroke="#265227" stroke-width="0.833333"/>
<circle cx="8.6665" cy="30.1665" r="2.5" fill="#BACDB1"/>
<circle cx="25.3333" cy="30.1665" r="2.5" fill="#BACDB1"/>
<path d="M2.89395 41.7422L6.22728 36.7422C6.53639 36.2785 7.05678 36 7.61403 36H8.05231C9.38347 36 10.1775 37.4836 9.43906 38.5912L6.10573 43.5912C5.79662 44.0548 5.27623 44.3333 4.71898 44.3333H4.2807C2.94954 44.3333 2.15555 42.8498 2.89395 41.7422Z" fill="#265227" stroke="#265227" stroke-width="0.833333"/>
<path d="M31.1058 41.7422L27.7725 36.7422C27.4634 36.2785 26.943 36 26.3857 36H25.9474C24.6163 36 23.8223 37.4836 24.5607 38.5912L27.894 43.5912C28.2031 44.0548 28.7235 44.3333 29.2808 44.3333H29.7191C31.0502 44.3333 31.8442 42.8498 31.1058 41.7422Z" fill="#265227" stroke="#265227" stroke-width="0.833333"/>
</svg>
