<svg width="71" height="70" viewBox="0 0 71 70" fill="none" xmlns="http://www.w3.org/2000/svg">
<circle cx="35.5" cy="35" r="35" fill="#BACDB1"/>
<g clip-path="url(#clip0_69_690)">
<path d="M14.9657 32.3201V43.6402C14.9657 44.1925 15.4134 44.6402 15.9657 44.6402H20.9657C20.9657 51.5 29.9657 51.5 29.9657 44.6402H42.9657C42.9657 51.5 51.9657 51.5 51.9657 44.6402H57.4657C58.018 44.6402 58.4657 44.1924 58.4657 43.6402V32.3201M14.9657 32.3201V23C14.9657 21.3431 16.3088 20 17.9657 20H27.4657M14.9657 32.3201H27.4657M27.4657 32.3201V20M27.4657 32.3201H37.9657M27.4657 20H37.9657M37.9657 32.3201V20M37.9657 32.3201H48.9657M37.9657 20H48.9657M48.9657 32.3201V20M48.9657 32.3201H58.4657M48.9657 20H52.4657C55.7794 20 58.4657 22.6863 58.4657 26V32.3201" stroke="#373737" stroke-width="4"/>
</g>
<defs>
<clipPath id="clip0_69_690">
<rect width="47.9452" height="34" fill="white" transform="translate(12.9657 18)"/>
</clipPath>
</defs>
</svg>
