<svg width="47" height="48" viewBox="0 0 47 48" fill="none" xmlns="http://www.w3.org/2000/svg">
<path d="M46.1053 23.7929C46.1053 36.9333 35.7843 47.5858 23.0527 47.5858C10.321 47.5858 0 36.9333 0 23.7929C0 10.6524 10.321 0 23.0527 0C35.7843 0 46.1053 10.6524 46.1053 23.7929ZM3.59724 23.7929C3.59724 34.8829 12.3077 43.873 23.0527 43.873C33.7976 43.873 42.5081 34.8829 42.5081 23.7929C42.5081 12.7029 33.7976 3.71275 23.0527 3.71275C12.3077 3.71275 3.59724 12.7029 3.59724 23.7929Z" fill="#F47600"/>
<path d="M17.5918 19.5279L12.426 34.5172C12.0567 35.5889 13.171 36.5703 14.1875 36.0685L27.3539 29.5686C27.8504 29.3235 28.231 28.8934 28.4139 28.3708L33.7493 13.1268C34.1268 12.0482 32.998 11.0593 31.9785 11.5755L18.6361 18.3301C18.1455 18.5784 17.771 19.008 17.5918 19.5279Z" fill="#F47600" stroke="#F47600" stroke-width="0.211492"/>
<path d="M25.5664 25.9891L20.9316 21.3544C20.8302 21.2529 20.8571 21.0821 20.9847 21.0166L28.7093 17.0578C28.88 16.9703 29.0697 17.137 29.0048 17.3176L25.9149 25.9111C25.8625 26.0571 25.676 26.0988 25.5664 25.9891Z" fill="#F1F0F0" stroke="#F47600" stroke-width="0.211492"/>
</svg>
