<svg width="45" height="47" viewBox="0 0 45 47" fill="none" xmlns="http://www.w3.org/2000/svg">
<g clip-path="url(#clip0_69_426)">
<path d="M1.875 26.9008V20.8667C1.875 20.522 2.10054 20.2179 2.43042 20.1178L6.00638 19.0327C6.2246 18.9665 6.40308 18.8084 6.49516 18.5998L7.85986 15.5079C7.96513 15.2694 7.94473 14.9941 7.80545 14.7737L5.86085 11.6967C5.65839 11.3763 5.71454 10.957 5.99414 10.7011L9.95429 7.07773C10.1973 6.85541 10.5534 6.80898 10.8453 6.96157L13.6414 8.42347C13.8636 8.53965 14.128 8.54233 14.3525 8.43067L17.4562 6.88708C17.683 6.77433 17.8411 6.55886 17.8807 6.30877L18.4588 2.66019C18.5191 2.27996 18.8469 2 19.2319 2H25.5656C25.9392 2 26.2607 2.2641 26.3333 2.63062L27.0689 6.34462C27.1144 6.57428 27.2603 6.77152 27.4666 6.88222L30.2859 8.39506C30.532 8.52711 30.8298 8.51803 31.0674 8.37123L34.2519 6.40356C34.5638 6.2108 34.9678 6.26048 35.2238 6.52308L39.3033 10.7085C39.5527 10.9643 39.5972 11.3565 39.4114 11.6617L37.4993 14.8037C37.3753 15.0075 37.351 15.2568 37.4333 15.4808L38.568 18.5655C38.6521 18.7942 38.838 18.9707 39.0708 19.0429L42.5323 20.1156C42.86 20.2171 43.0833 20.5201 43.0833 20.8632V26.9037C43.0833 27.2691 42.8304 27.5859 42.4741 27.6669L39.1037 28.4328C38.852 28.49 38.6446 28.6677 38.5495 28.9078L37.4483 31.6878C37.3569 31.9186 37.3804 32.179 37.5116 32.3898L39.4057 35.4314C39.5947 35.735 39.5539 36.1281 39.3066 36.3864L35.2237 40.65C34.9683 40.9167 34.5612 40.9686 34.247 40.7745L31.0762 38.8152C30.8339 38.6655 30.5295 38.6592 30.2812 38.7988L27.4501 40.3903C27.2535 40.5008 27.1141 40.6908 27.0677 40.9116L26.3391 44.3783C26.2629 44.7406 25.9434 45 25.5732 45H19.2255C18.8433 45 18.517 44.724 18.4537 44.3471L17.8822 40.9485C17.8415 40.7065 17.6897 40.4976 17.472 40.3842L14.4155 38.7917C14.1571 38.657 13.8453 38.6771 13.6062 38.8437L10.9139 40.7206C10.5953 40.9427 10.1619 40.8975 9.89593 40.6144L5.93052 36.3939C5.68412 36.1316 5.64829 35.7351 5.84371 35.4329L7.79117 32.4214C7.93855 32.1935 7.95734 31.9055 7.84083 31.6604L6.51411 28.8692C6.41061 28.6515 6.21255 28.4936 5.97723 28.4412L2.48767 27.6648C2.12967 27.5851 1.875 27.2675 1.875 26.9008Z" stroke="#F47600" stroke-width="3"/>
<path d="M29 24C29 27.866 25.866 31 22 31C18.134 31 15 27.866 15 24C15 20.134 18.134 17 22 17C25.866 17 29 20.134 29 24ZM17.7016 24C17.7016 26.3739 19.6261 28.2984 22 28.2984C24.3739 28.2984 26.2984 26.3739 26.2984 24C26.2984 21.6261 24.3739 19.7016 22 19.7016C19.6261 19.7016 17.7016 21.6261 17.7016 24Z" fill="#F47600"/>
</g>
<defs>
<clipPath id="clip0_69_426">
<rect width="45" height="47" fill="white"/>
</clipPath>
</defs>
</svg>
