<svg width="267" height="267" viewBox="0 0 267 267" fill="none" xmlns="http://www.w3.org/2000/svg">
<mask id="path-1-inside-1_280_360" fill="white">
<path d="M266.898 133.449C266.898 207.151 207.151 266.898 133.449 266.898C59.7473 266.898 0 207.151 0 133.449C0 59.7473 59.7473 0 133.449 0C207.151 0 266.898 59.7473 266.898 133.449ZM24.8925 133.449C24.8925 193.403 73.495 242.006 133.449 242.006C193.403 242.006 242.006 193.403 242.006 133.449C242.006 73.495 193.403 24.8925 133.449 24.8925C73.495 24.8925 24.8925 73.495 24.8925 133.449Z"/>
</mask>
<path d="M266.898 133.449C266.898 207.151 207.151 266.898 133.449 266.898C59.7473 266.898 0 207.151 0 133.449C0 59.7473 59.7473 0 133.449 0C207.151 0 266.898 59.7473 266.898 133.449ZM24.8925 133.449C24.8925 193.403 73.495 242.006 133.449 242.006C193.403 242.006 242.006 193.403 242.006 133.449C242.006 73.495 193.403 24.8925 133.449 24.8925C73.495 24.8925 24.8925 73.495 24.8925 133.449Z" stroke="#373737" stroke-width="2" mask="url(#path-1-inside-1_280_360)"/>
</svg>
