<svg width="42" height="42" viewBox="0 0 42 42" fill="none" xmlns="http://www.w3.org/2000/svg">
<path d="M23.6136 18.1157L38.8968 24.3062C38.9789 24.3394 39.0445 24.4024 39.081 24.4808L39.107 24.5638L39.7789 28.1862C39.8253 28.4368 39.5938 28.6499 39.3479 28.583L22.0065 23.858C21.8222 23.8078 21.7137 23.6178 21.7638 23.4336L23.1501 18.3457C23.1977 18.1708 23.3695 18.0661 23.5403 18.0947L23.6136 18.1157Z" fill="#373737" stroke="#373737" stroke-width="0.384291"/>
<path d="M18.3863 18.0893L3.10309 24.2798C3.02097 24.3131 2.95539 24.3761 2.9189 24.4545L2.89293 24.5375L2.22098 28.1599C2.1746 28.4105 2.40607 28.6235 2.65196 28.5566L19.9934 23.8317C20.1776 23.7815 20.2861 23.5915 20.2361 23.4072L18.8498 18.3193C18.8021 18.1444 18.6304 18.0397 18.4595 18.0683L18.3863 18.0893Z" fill="#373737" stroke="#373737" stroke-width="0.384291"/>
<path d="M20.6244 34.1675L29.3685 36.4126C29.415 36.4245 29.4549 36.4537 29.4808 36.4927L29.5023 36.5347L30.9701 40.6401C31.0141 40.7633 30.9261 40.8877 30.8051 40.897L30.7513 40.8931L20.6888 38.8833C20.6515 38.8759 20.6135 38.8725 20.5756 38.8726L20.4613 38.8843L10.6088 40.894C10.4824 40.9196 10.3729 40.8175 10.3783 40.6978L10.3881 40.645L11.7474 36.5366C11.7628 36.4901 11.7954 36.4523 11.8373 36.4292L11.8812 36.4106L20.5277 34.1675C20.5434 34.1634 20.5595 34.1617 20.5756 34.1616L20.6244 34.1675Z" fill="#373737" stroke="#373737" stroke-width="0.384291"/>
<path d="M20.5907 0.799805C22.4346 0.799916 23.9296 2.29472 23.9296 4.13867V35.7256H17.2518V4.13867C17.2518 2.29465 18.7467 0.799805 20.5907 0.799805Z" fill="#373737" stroke="#373737" stroke-width="0.384291"/>
</svg>
