<svg width="70" height="71" viewBox="0 0 70 71" fill="none" xmlns="http://www.w3.org/2000/svg">
<circle cx="35" cy="35.2148" r="35" fill="#BACDB1"/>
<path d="M37.4246 32.5082L52.7078 38.6987C52.7899 38.732 52.8555 38.795 52.892 38.8734L52.918 38.9564L53.5899 42.5788C53.6363 42.8294 53.4048 43.0425 53.159 42.9756L35.8175 38.2506C35.6333 38.2004 35.5248 38.0104 35.5748 37.8262L36.9611 32.7382C37.0088 32.5634 37.1805 32.4586 37.3514 32.4873L37.4246 32.5082Z" fill="#265227" stroke="#265227" stroke-width="0.384291"/>
<path d="M32.1973 32.4819L16.9141 38.6724C16.832 38.7056 16.7664 38.7686 16.7299 38.847L16.704 38.93L16.032 42.5524C15.9856 42.803 16.2171 43.0161 16.463 42.9492L33.8045 38.2242C33.9887 38.174 34.0972 37.984 34.0471 37.7998L32.6608 32.7119C32.6132 32.537 32.4414 32.4323 32.2706 32.4609L32.1973 32.4819Z" fill="#265227" stroke="#265227" stroke-width="0.384291"/>
<path d="M34.4354 48.5601L43.1796 50.8052C43.226 50.8171 43.2659 50.8463 43.2919 50.8853L43.3134 50.9272L44.7811 55.0327C44.8252 55.1559 44.7371 55.2803 44.6161 55.2896L44.5624 55.2856L34.4999 53.2759C34.4625 53.2685 34.4245 53.2651 34.3866 53.2651L34.2723 53.2769L24.4198 55.2866C24.2934 55.3122 24.1839 55.21 24.1893 55.0903L24.1991 55.0376L25.5585 50.9292C25.5739 50.8827 25.6064 50.8449 25.6483 50.8218L25.6923 50.8032L34.3387 48.5601C34.3544 48.556 34.3706 48.5542 34.3866 48.5542L34.4354 48.5601Z" fill="#265227" stroke="#265227" stroke-width="0.384291"/>
<path d="M34.4017 15.1924C36.2457 15.1925 37.7406 16.6873 37.7406 18.5312V50.1182H31.0629V18.5312C31.0629 16.6872 32.5577 15.1924 34.4017 15.1924Z" fill="#265227" stroke="#265227" stroke-width="0.384291"/>
</svg>
