<svg width="46" height="48" viewBox="0 0 46 48" fill="none" xmlns="http://www.w3.org/2000/svg">
<g clip-path="url(#clip0_69_413)">
<path d="M5.18182 44L3.59101 43.9825L3.59091 43.9912V44H5.18182ZM22.7879 2L23.8521 0.817487L22.7711 -0.155444L21.7053 0.834193L22.7879 2ZM5.39394 24.0606H3.80303C3.80303 24.3673 3.7502 29.3364 3.69706 34.2517C3.67055 36.7043 3.64403 39.137 3.62415 40.9566C3.61421 41.8663 3.60592 42.6228 3.60012 43.1519C3.59722 43.4164 3.59494 43.6241 3.59339 43.7656C3.59261 43.8363 3.59202 43.8906 3.59161 43.9271C3.59141 43.9454 3.59126 43.9592 3.59116 43.9685C3.59111 43.9732 3.59107 43.9767 3.59104 43.979C3.59103 43.9802 3.59102 43.981 3.59102 43.9816C3.59101 43.9819 3.59101 43.9821 3.59101 43.9823C3.59101 43.9824 3.59101 43.9825 5.18182 44C6.77263 44.0175 6.77263 44.0174 6.77263 44.0172C6.77263 44.0171 6.77264 44.0169 6.77264 44.0166C6.77265 44.016 6.77266 44.0151 6.77267 44.0139C6.7727 44.0116 6.77273 44.0081 6.77278 44.0035C6.77289 43.9942 6.77304 43.9803 6.77324 43.9621C6.77364 43.9255 6.77424 43.8713 6.77501 43.8005C6.77657 43.659 6.77885 43.4513 6.78175 43.1868C6.78755 42.6577 6.79583 41.9012 6.80578 40.9913C6.82566 39.1717 6.85218 36.7389 6.87869 34.2861C6.93162 29.3909 6.98485 24.3902 6.98485 24.0606H5.39394ZM5.18182 44H3.59091C3.59091 44.4876 3.58806 45.0016 3.63912 45.4193C3.69065 45.8409 3.83044 46.5124 4.40332 47.0332C4.94462 47.5253 5.60321 47.6302 6.00631 47.6709C6.43352 47.7141 6.96721 47.7121 7.51515 47.7121V46.1212V44.5303C7.21908 44.5303 6.97998 44.5302 6.77448 44.5264C6.56761 44.5226 6.42632 44.5153 6.32608 44.5052C6.22236 44.4947 6.21009 44.4855 6.24631 44.4973C6.2928 44.5126 6.41383 44.5609 6.54365 44.6789C6.82487 44.9345 6.81882 45.2083 6.79743 45.0333C6.7886 44.961 6.78099 44.8475 6.77688 44.6644C6.77281 44.483 6.77273 44.2705 6.77273 44H5.18182ZM7.51515 46.1212V47.7121H15.8939V46.1212V44.5303H7.51515V46.1212ZM15.8939 46.1212V47.7121C16.2991 47.7121 16.7614 47.7154 17.1425 47.6655C17.5404 47.6135 18.1901 47.4672 18.6838 46.8864C19.131 46.3603 19.2187 45.7359 19.2527 45.3759C19.2896 44.9849 19.2879 44.4972 19.2879 44H17.697H16.1061C16.1061 44.2693 16.106 44.4862 16.1028 44.6726C16.0995 44.8602 16.0934 44.9873 16.0849 45.0767C16.0762 45.1697 16.0687 45.1767 16.0806 45.1378C16.095 45.0907 16.1414 44.9645 16.2594 44.8257C16.3841 44.6789 16.5269 44.5908 16.6363 44.5444C16.7284 44.5054 16.777 44.5044 16.7301 44.5106C16.6853 44.5164 16.602 44.523 16.4509 44.5266C16.3014 44.5302 16.125 44.5303 15.8939 44.5303V46.1212ZM17.697 44H19.2879V32.4394H17.697H16.1061V44H17.697ZM17.697 32.4394H19.2879C19.2879 32.2334 19.288 32.0854 19.2917 31.9619C19.2955 31.8365 19.3019 31.7862 19.3036 31.7755C19.3052 31.7657 19.2932 31.8541 19.2269 31.9797C19.1503 32.1248 19.0322 32.2613 18.8848 32.3618C18.7541 32.451 18.6526 32.4758 18.6459 32.4774C18.6412 32.4786 18.6819 32.4688 18.8015 32.4597C19.0551 32.4405 19.4203 32.4394 20.0303 32.4394V30.8485V29.2576C19.4736 29.2576 18.9639 29.2565 18.5612 29.287C18.2035 29.3141 17.6117 29.3788 17.0924 29.7329C16.4464 30.1734 16.2369 30.8119 16.1632 31.2638C16.1011 31.6453 16.1061 32.0981 16.1061 32.4394H17.697ZM20.0303 30.8485V32.4394H25.9697V30.8485V29.2576H20.0303V30.8485ZM25.9697 30.8485V32.4394C26.2385 32.4394 26.4572 32.4394 26.6455 32.4423C26.835 32.4452 26.9676 32.4507 27.0639 32.4587C27.1639 32.4671 27.1833 32.475 27.1583 32.4683C27.1287 32.4603 27.0109 32.4248 26.8712 32.3201C26.7181 32.2052 26.6098 32.0607 26.5448 31.9253C26.4891 31.8092 26.481 31.7327 26.484 31.7528C26.4869 31.7722 26.493 31.8296 26.4964 31.9575C26.4999 32.0837 26.5 32.2341 26.5 32.4394H28.0909H29.6818C29.6818 32.0931 29.686 31.6542 29.6315 31.2865C29.5703 30.8736 29.3945 30.2353 28.7803 29.7746C28.2632 29.3868 27.6679 29.3162 27.3281 29.2879C26.9479 29.2562 26.4707 29.2576 25.9697 29.2576V30.8485ZM28.0909 32.4394H26.5V44H28.0909H29.6818V32.4394H28.0909ZM28.0909 44H26.5C26.5 44.4991 26.4985 44.9815 26.5328 45.3672C26.5638 45.7166 26.6427 46.3273 27.0607 46.8499C27.5392 47.448 28.1841 47.6077 28.5879 47.6638C28.9619 47.7158 29.412 47.7121 29.7879 47.7121V46.1212V44.5303C29.5697 44.5303 29.4062 44.5302 29.2683 44.5267C29.1287 44.5231 29.0581 44.5168 29.0257 44.5123C28.9918 44.5076 29.054 44.5118 29.158 44.5586C29.2806 44.6137 29.4249 44.7117 29.5453 44.8622C29.6572 45.002 29.6981 45.1246 29.7092 45.163C29.7184 45.1951 29.7107 45.182 29.7021 45.0855C29.6938 44.9926 29.688 44.8628 29.6849 44.6742C29.6818 44.4868 29.6818 44.269 29.6818 44H28.0909ZM29.7879 46.1212V47.7121H38.3788V46.1212V44.5303H29.7879V46.1212ZM38.3788 46.1212V47.7121C38.8129 47.7121 39.2883 47.715 39.6774 47.667C40.0722 47.6182 40.7251 47.4832 41.2317 46.9203C41.7068 46.3924 41.8039 45.7558 41.841 45.3846C41.8807 44.9882 41.8788 44.4952 41.8788 44H40.2879H38.697C38.697 44.2695 38.6969 44.4856 38.6935 44.6709C38.6901 44.8577 38.6836 44.9821 38.675 45.068C38.6661 45.1575 38.659 45.1584 38.6737 45.113C38.6917 45.0576 38.7435 44.9287 38.8667 44.7918C38.9945 44.6498 39.1345 44.5708 39.2309 44.5322C39.3112 44.5001 39.3467 44.5018 39.2875 44.5091C39.2309 44.5161 39.1354 44.5229 38.9729 44.5266C38.8119 44.5302 38.6228 44.5303 38.3788 44.5303V46.1212ZM40.2879 44H41.8788V24.0606H40.2879H38.697V44H40.2879ZM40.2879 24.0606H41.8788C41.8788 24.3591 41.7785 24.686 41.5519 24.958C41.3499 25.2004 41.1256 25.3058 41.0186 25.347C40.8401 25.4156 40.7434 25.398 40.8899 25.396C40.9968 25.3945 41.1443 25.4012 41.3664 25.4146C41.5683 25.4268 41.8314 25.4446 42.0917 25.4531C42.5623 25.4686 43.3143 25.4723 43.9894 25.2135C44.3585 25.072 44.7848 24.823 45.1138 24.3838C45.4533 23.9305 45.5909 23.406 45.5909 22.8939H44H42.4091C42.4091 22.8326 42.4307 22.6584 42.5672 22.4761C42.6932 22.308 42.8294 22.2506 42.8505 22.2425C42.8646 22.2371 42.8215 22.2547 42.687 22.2664C42.5587 22.2776 42.3972 22.2796 42.1962 22.273C41.9925 22.2663 41.7915 22.2527 41.5584 22.2386C41.3455 22.2257 41.0869 22.2111 40.8459 22.2145C40.6444 22.2173 40.2577 22.2305 39.8762 22.3773C39.6676 22.4575 39.3635 22.6137 39.1072 22.9215C38.8262 23.2587 38.697 23.6653 38.697 24.0606H40.2879ZM44 22.8939H45.5909C45.5909 22.499 45.4605 22.1789 45.3894 22.0214C45.3037 21.8313 45.1975 21.6517 45.0954 21.4947C44.89 21.1789 44.6164 20.826 44.3097 20.4588C43.6908 19.7176 42.8291 18.79 41.8257 17.759C39.8126 15.6906 37.1412 13.1164 34.4851 10.6131C31.8257 8.10658 29.1678 5.658 27.1757 3.83692C26.1794 2.92613 25.349 2.17176 24.7675 1.64489C24.4768 1.38144 24.2482 1.17485 24.0922 1.03399C24.0142 0.963563 23.9543 0.909567 23.9139 0.873113C23.8937 0.854886 23.8783 0.841044 23.868 0.831727C23.8628 0.827069 23.8589 0.823541 23.8562 0.821162C23.8549 0.819972 23.8539 0.81907 23.8532 0.818456C23.8529 0.81815 23.8526 0.817907 23.8524 0.817754C23.8522 0.817584 23.8521 0.817487 22.7879 2C21.7236 3.18251 21.7237 3.18256 21.7238 3.18268C21.724 3.18282 21.7242 3.18301 21.7245 3.18329C21.7251 3.18383 21.726 3.18467 21.7273 3.18579C21.7298 3.18804 21.7335 3.19144 21.7385 3.19596C21.7486 3.20501 21.7637 3.21858 21.7836 3.23653C21.8234 3.27243 21.8826 3.32585 21.96 3.39569C22.1147 3.53536 22.3419 3.74069 22.6311 4.00278C23.2097 4.52699 24.0365 5.27817 25.0288 6.18533C27.0141 8.00014 29.6592 10.437 32.3028 12.9286C34.9498 15.4233 37.5813 17.96 39.5455 19.9782C40.5308 20.9905 41.3263 21.8502 41.8674 22.4982C42.1407 22.8255 42.3228 23.0676 42.4281 23.2296C42.4814 23.3114 42.4943 23.3414 42.4889 23.3294C42.4855 23.3218 42.4693 23.2853 42.4524 23.2252C42.4368 23.1693 42.4091 23.0524 42.4091 22.8939H44ZM22.7879 2C21.7053 0.834193 21.7052 0.834288 21.7051 0.834457C21.7049 0.834611 21.7046 0.834853 21.7043 0.835161C21.7036 0.835777 21.7027 0.836686 21.7014 0.837885C21.6988 0.840282 21.695 0.84384 21.6899 0.848542C21.6798 0.857946 21.6647 0.871923 21.6449 0.890332C21.6053 0.92715 21.5467 0.981698 21.4703 1.05285C21.3175 1.19514 21.0936 1.40384 20.8087 1.6699C20.239 2.20201 19.4255 2.96367 18.4493 3.88254C16.4975 5.71985 13.8935 8.18767 11.2881 10.7066C8.68575 13.2227 6.06983 15.8015 4.09955 17.8573C3.11734 18.8821 2.27586 19.7973 1.67255 20.5191C1.37374 20.8766 1.10818 21.2165 0.90905 21.5157C0.810447 21.6638 0.706385 21.8342 0.62141 22.0139C0.556818 22.1505 0.409091 22.4805 0.409091 22.8939H2H3.59091C3.59091 23.0737 3.55634 23.2054 3.53911 23.2629C3.51991 23.327 3.50161 23.3662 3.49786 23.3741C3.49155 23.3874 3.50421 23.3592 3.55786 23.2785C3.66325 23.1202 3.8443 22.8822 4.1139 22.5596C4.64743 21.9213 5.43001 21.0675 6.39666 20.0589C8.32411 18.0479 10.9052 15.5027 13.4998 12.9941C16.0914 10.4885 18.6843 8.0311 20.6302 6.19937C21.6029 5.28372 22.4134 4.52491 22.9806 3.99517C23.2642 3.73031 23.4869 3.52274 23.6385 3.3815C23.7144 3.31087 23.7725 3.25684 23.8115 3.22051C23.8311 3.20235 23.8459 3.18862 23.8557 3.17945C23.8607 3.17487 23.8644 3.17143 23.8668 3.16915C23.868 3.16801 23.869 3.16716 23.8696 3.1666C23.8699 3.16632 23.8701 3.16612 23.8702 3.16598C23.8704 3.16586 23.8704 3.16581 22.7879 2ZM2 22.8939H0.409091C0.409091 23.3805 0.535764 23.9027 0.883557 24.3561C1.22285 24.7984 1.66178 25.0304 2.02721 25.1523C2.67867 25.3694 3.40054 25.3284 3.79621 25.3037C4.35747 25.2686 4.56721 25.2412 4.73152 25.2549C4.80787 25.2613 4.61588 25.2646 4.37111 25.1029C4.00385 24.8603 3.80303 24.4449 3.80303 24.0606H5.39394H6.98485C6.98485 23.4112 6.67797 22.8135 6.12511 22.4482C5.69473 22.1639 5.23759 22.1042 4.99575 22.0841C4.5237 22.0448 3.88495 22.1101 3.59773 22.1281C3.14491 22.1564 3.0183 22.1287 3.03339 22.1337C3.08064 22.1495 3.25442 22.2191 3.40811 22.4195C3.5703 22.6309 3.59091 22.8316 3.59091 22.8939H2Z" fill="#F47600"/>
</g>
<defs>
<clipPath id="clip0_69_413">
<rect width="46" height="48" fill="white"/>
</clipPath>
</defs>
</svg>
