<svg width="50" height="44" viewBox="0 0 50 44" fill="none" xmlns="http://www.w3.org/2000/svg">
<g clip-path="url(#clip0_69_421)">
<path d="M2 41.0998V22.4698C2 22.2157 2.20595 22.0098 2.46 22.0098H13.04C13.2941 22.0098 13.5 22.2157 13.5 22.4698V41.0998C13.5 41.3538 13.2941 41.5598 13.04 41.5598H2.46C2.20595 41.5598 2 41.3538 2 41.0998Z" stroke="#F47600" stroke-width="3.68"/>
<path d="M19.25 41.1001V12.3501C19.25 12.0961 19.4559 11.8901 19.71 11.8901H30.29C30.5441 11.8901 30.75 12.0961 30.75 12.3501V41.1001C30.75 41.3542 30.5441 41.5601 30.29 41.5601H19.71C19.4559 41.5601 19.25 41.3542 19.25 41.1001Z" stroke="#F47600" stroke-width="3.68"/>
<path d="M36.5 41.1V2.46C36.5 2.20595 36.7059 2 36.96 2H47.54C47.7941 2 48 2.20595 48 2.46V41.1C48 41.3541 47.7941 41.56 47.54 41.56H36.96C36.7059 41.56 36.5 41.3541 36.5 41.1Z" stroke="#F47600" stroke-width="3.68"/>
</g>
<defs>
<clipPath id="clip0_69_421">
<rect width="50" height="44" fill="white"/>
</clipPath>
</defs>
</svg>
