<svg width="229" height="314" viewBox="0 0 229 314" fill="none" xmlns="http://www.w3.org/2000/svg">
<path d="M113.856 9.78027C124.842 9.33135 135.768 13.5493 144.027 22.3545C152.308 31.1823 157.694 44.3696 158.176 61.5547L158.216 63.2031C158.372 71.348 157.925 78.0013 156.343 84.0986C154.742 90.2673 152.038 95.6494 147.966 101.346L147.133 102.489C143.837 106.937 141.086 110.435 138.903 113.285C136.685 116.182 135.079 118.379 133.857 120.44C131.721 124.047 130.636 127.426 130.18 133.765L130.097 135.073C129.833 139.829 131.329 144.946 132.906 151.748C134.36 158.017 135.724 165.284 134.419 173.142L134.284 173.904C132.397 183.969 129.231 191.935 123.836 197.388C118.476 202.805 111.441 205.226 102.895 205.435L102.062 205.448C91.884 205.527 84.4443 202.888 79.1748 196.955C74.4755 191.664 71.9965 184.255 70.1484 175.694L69.7871 173.968C68.4056 167.174 68.6633 160.723 69.0898 154.654C69.4982 148.844 70.0424 143.507 69.7754 137.914L69.7109 136.792C68.9043 124.82 67.4423 115.324 66.1494 105.917C64.8583 96.5226 63.7461 87.2762 63.7461 76.1357L63.751 75.3115C63.9511 58.0062 70.428 41.9017 79.6328 30.0352C88.8576 18.143 101.412 9.81726 113.856 9.78027Z" stroke="#265227" stroke-width="8.50735" stroke-linejoin="round"/>
<path d="M106.429 172.237L101.325 176.49C91.3315 165.199 84.0734 148.024 92.8175 106.73C90.0321 97.5165 90.7483 84.3543 94.519 76.1038C101.161 61.5705 104.938 56.8751 124.295 41.2236C130.216 53.8421 132.082 65.5874 129.399 77.8052C125.888 93.7974 117.404 98.9469 105.579 106.73C107.399 92.468 110.484 83.4191 116.638 68.4471C106.942 77.0667 102.066 84.7551 98.7727 102.477C96.3565 123.605 96.11 133.854 97.0712 150.118L106.429 172.237Z" fill="#265227" stroke="#265227" stroke-width="1.70147" stroke-linejoin="round"/>
<path d="M23.736 285.24C22.776 285.24 22.008 284.968 21.432 284.424C20.888 283.848 20.616 283.096 20.616 282.168V256.248H11.88C9.96 256.248 9 255.4 9 253.704C9 252.008 9.96 251.16 11.88 251.16H35.544C37.464 251.16 38.424 252.008 38.424 253.704C38.424 255.4 37.464 256.248 35.544 256.248H26.808V282.168C26.808 283.096 26.52 283.848 25.944 284.424C25.4 284.968 24.664 285.24 23.736 285.24ZM50.9115 261.048C51.7435 260.984 52.3995 261.16 52.8795 261.576C53.3595 261.992 53.5995 262.616 53.5995 263.448C53.5995 264.312 53.3915 264.952 52.9755 265.368C52.5595 265.784 51.8075 266.056 50.7195 266.184L49.2795 266.328C47.3915 266.52 45.9995 267.16 45.1035 268.248C44.2395 269.336 43.8075 270.696 43.8075 272.328V282.408C43.8075 283.336 43.5195 284.056 42.9435 284.568C42.3675 285.048 41.6475 285.288 40.7835 285.288C39.9195 285.288 39.1995 285.048 38.6235 284.568C38.0795 284.056 37.8075 283.336 37.8075 282.408V263.832C37.8075 262.936 38.0795 262.248 38.6235 261.768C39.1995 261.288 39.9035 261.048 40.7355 261.048C41.5675 261.048 42.2395 261.288 42.7515 261.768C43.2635 262.216 43.5195 262.872 43.5195 263.736V265.656C44.1275 264.248 45.0235 263.16 46.2075 262.392C47.4235 261.624 48.7675 261.192 50.2395 261.096L50.9115 261.048ZM66.2648 260.952C69.5288 260.952 71.9448 261.768 73.5128 263.4C75.1128 265 75.9128 267.448 75.9128 270.744V282.456C75.9128 283.32 75.6568 284.008 75.1448 284.52C74.6328 285 73.9288 285.24 73.0328 285.24C72.2008 285.24 71.5128 284.984 70.9688 284.472C70.4568 283.96 70.2008 283.288 70.2008 282.456V281.4C69.6568 282.648 68.7928 283.624 67.6088 284.328C66.4568 285.032 65.1128 285.384 63.5768 285.384C62.0088 285.384 60.5848 285.064 59.3047 284.424C58.0248 283.784 57.0168 282.904 56.2808 281.784C55.5448 280.664 55.1768 279.416 55.1768 278.04C55.1768 276.312 55.6088 274.952 56.4728 273.96C57.3688 272.968 58.8088 272.248 60.7928 271.8C62.7768 271.352 65.5128 271.128 69.0008 271.128H70.2008V270.024C70.2008 268.456 69.8648 267.32 69.1928 266.616C68.5208 265.88 67.4328 265.512 65.9288 265.512C65.0008 265.512 64.0568 265.656 63.0968 265.944C62.1368 266.2 61.0008 266.584 59.6888 267.096C58.8568 267.512 58.2488 267.72 57.8648 267.72C57.2888 267.72 56.8088 267.512 56.4248 267.096C56.0728 266.68 55.8968 266.136 55.8968 265.464C55.8968 264.92 56.0248 264.456 56.2808 264.072C56.5688 263.656 57.0328 263.272 57.6728 262.92C58.7928 262.312 60.1208 261.832 61.6568 261.48C63.2248 261.128 64.7608 260.952 66.2648 260.952ZM64.7768 281.064C66.3768 281.064 67.6728 280.536 68.6648 279.48C69.6888 278.392 70.2008 277 70.2008 275.304V274.296H69.3368C67.1928 274.296 65.5288 274.392 64.3448 274.584C63.1608 274.776 62.3128 275.112 61.8008 275.592C61.2888 276.072 61.0328 276.728 61.0328 277.56C61.0328 278.584 61.3848 279.432 62.0888 280.104C62.8248 280.744 63.7208 281.064 64.7768 281.064ZM92.4266 285.384C90.0906 285.384 88.0266 284.888 86.2346 283.896C84.4746 282.904 83.1146 281.496 82.1546 279.672C81.1946 277.848 80.7146 275.72 80.7146 273.288C80.7146 270.856 81.2106 268.712 82.2026 266.856C83.2266 264.968 84.6506 263.512 86.4746 262.488C88.2986 261.464 90.3946 260.952 92.7626 260.952C94.0106 260.952 95.2586 261.128 96.5066 261.48C97.7866 261.832 98.9066 262.312 99.8666 262.92C100.891 263.592 101.403 264.44 101.403 265.464C101.403 266.168 101.227 266.744 100.875 267.192C100.555 267.608 100.123 267.816 99.5786 267.816C99.2266 267.816 98.8586 267.736 98.4746 267.576C98.0906 267.416 97.7066 267.224 97.3226 267C96.6186 266.584 95.9466 266.264 95.3066 266.04C94.6666 265.784 93.9306 265.656 93.0986 265.656C91.1146 265.656 89.5786 266.312 88.4906 267.624C87.4346 268.904 86.9066 270.76 86.9066 273.192C86.9066 275.592 87.4346 277.448 88.4906 278.76C89.5786 280.04 91.1146 280.68 93.0986 280.68C93.8986 280.68 94.6026 280.568 95.2106 280.344C95.8506 280.088 96.5546 279.752 97.3226 279.336C97.8026 279.048 98.2186 278.84 98.5706 278.712C98.9226 278.552 99.2746 278.472 99.6266 278.472C100.139 278.472 100.571 278.696 100.923 279.144C101.275 279.592 101.451 280.152 101.451 280.824C101.451 281.368 101.323 281.848 101.067 282.264C100.843 282.648 100.459 283 99.9146 283.32C98.9226 283.96 97.7706 284.472 96.4586 284.856C95.1466 285.208 93.8026 285.384 92.4266 285.384ZM124.024 278.568C124.568 278.568 125 278.776 125.32 279.192C125.672 279.608 125.848 280.168 125.848 280.872C125.848 281.864 125.256 282.696 124.072 283.368C122.984 283.976 121.752 284.472 120.376 284.856C119 285.208 117.688 285.384 116.44 285.384C112.664 285.384 109.672 284.296 107.464 282.12C105.256 279.944 104.152 276.968 104.152 273.192C104.152 270.792 104.632 268.664 105.592 266.808C106.552 264.952 107.896 263.512 109.624 262.488C111.384 261.464 113.368 260.952 115.576 260.952C117.688 260.952 119.528 261.416 121.096 262.344C122.664 263.272 123.88 264.584 124.744 266.28C125.608 267.976 126.04 269.976 126.04 272.28C126.04 273.656 125.432 274.344 124.216 274.344H110.056C110.248 276.552 110.872 278.184 111.928 279.24C112.984 280.264 114.52 280.776 116.536 280.776C117.56 280.776 118.456 280.648 119.224 280.392C120.024 280.136 120.92 279.784 121.912 279.336C122.872 278.824 123.576 278.568 124.024 278.568ZM115.72 265.176C114.088 265.176 112.776 265.688 111.784 266.712C110.824 267.736 110.248 269.208 110.056 271.128H120.904C120.84 269.176 120.36 267.704 119.464 266.712C118.568 265.688 117.32 265.176 115.72 265.176ZM133.924 285.288C133.06 285.288 132.34 285.048 131.764 284.568C131.22 284.056 130.948 283.336 130.948 282.408V253.752C130.948 252.824 131.22 252.12 131.764 251.64C132.34 251.16 133.06 250.92 133.924 250.92C134.788 250.92 135.508 251.16 136.084 251.64C136.66 252.12 136.948 252.824 136.948 253.752V282.408C136.948 283.336 136.66 284.056 136.084 284.568C135.508 285.048 134.788 285.288 133.924 285.288ZM161.712 278.568C162.256 278.568 162.688 278.776 163.008 279.192C163.36 279.608 163.536 280.168 163.536 280.872C163.536 281.864 162.944 282.696 161.76 283.368C160.672 283.976 159.44 284.472 158.064 284.856C156.688 285.208 155.376 285.384 154.128 285.384C150.352 285.384 147.36 284.296 145.152 282.12C142.944 279.944 141.84 276.968 141.84 273.192C141.84 270.792 142.32 268.664 143.28 266.808C144.24 264.952 145.584 263.512 147.312 262.488C149.072 261.464 151.056 260.952 153.264 260.952C155.376 260.952 157.216 261.416 158.784 262.344C160.352 263.272 161.568 264.584 162.432 266.28C163.296 267.976 163.728 269.976 163.728 272.28C163.728 273.656 163.12 274.344 161.904 274.344H147.744C147.936 276.552 148.56 278.184 149.616 279.24C150.672 280.264 152.208 280.776 154.224 280.776C155.248 280.776 156.144 280.648 156.912 280.392C157.712 280.136 158.608 279.784 159.6 279.336C160.56 278.824 161.264 278.568 161.712 278.568ZM153.408 265.176C151.776 265.176 150.464 265.688 149.472 266.712C148.512 267.736 147.936 269.208 147.744 271.128H158.592C158.528 269.176 158.048 267.704 157.152 266.712C156.256 265.688 155.008 265.176 153.408 265.176ZM177.132 285.384C173.644 285.384 170.828 284.696 168.684 283.32C167.66 282.712 167.148 281.848 167.148 280.728C167.148 280.088 167.324 279.576 167.676 279.192C168.028 278.776 168.46 278.568 168.972 278.568C169.516 278.568 170.268 278.824 171.228 279.336C172.252 279.816 173.18 280.184 174.012 280.44C174.876 280.696 175.964 280.824 177.276 280.824C178.62 280.824 179.66 280.6 180.396 280.152C181.164 279.704 181.548 279.08 181.548 278.28C181.548 277.736 181.388 277.304 181.068 276.984C180.78 276.664 180.236 276.376 179.436 276.12C178.668 275.832 177.484 275.512 175.884 275.16C173.036 274.584 170.988 273.768 169.74 272.712C168.524 271.656 167.916 270.2 167.916 268.344C167.916 266.936 168.332 265.672 169.164 264.552C169.996 263.4 171.132 262.52 172.572 261.912C174.044 261.272 175.708 260.952 177.564 260.952C178.908 260.952 180.204 261.128 181.452 261.48C182.7 261.8 183.82 262.28 184.812 262.92C185.836 263.56 186.348 264.408 186.348 265.464C186.348 266.104 186.172 266.648 185.82 267.096C185.468 267.512 185.036 267.72 184.524 267.72C184.172 267.72 183.82 267.656 183.468 267.528C183.148 267.368 182.732 267.144 182.22 266.856C181.292 266.376 180.492 266.024 179.82 265.8C179.148 265.544 178.316 265.416 177.324 265.416C176.14 265.416 175.196 265.656 174.492 266.136C173.82 266.616 173.484 267.272 173.484 268.104C173.484 268.904 173.836 269.512 174.54 269.928C175.244 270.344 176.604 270.76 178.62 271.176C180.764 271.624 182.444 272.136 183.66 272.712C184.876 273.288 185.74 274.008 186.252 274.872C186.796 275.736 187.068 276.84 187.068 278.184C187.068 280.36 186.156 282.104 184.332 283.416C182.54 284.728 180.14 285.384 177.132 285.384ZM200.429 285.384C196.941 285.384 194.125 284.696 191.98 283.32C190.957 282.712 190.445 281.848 190.445 280.728C190.445 280.088 190.621 279.576 190.973 279.192C191.325 278.776 191.757 278.568 192.269 278.568C192.813 278.568 193.565 278.824 194.525 279.336C195.549 279.816 196.477 280.184 197.309 280.44C198.173 280.696 199.261 280.824 200.573 280.824C201.917 280.824 202.957 280.6 203.693 280.152C204.461 279.704 204.845 279.08 204.845 278.28C204.845 277.736 204.685 277.304 204.365 276.984C204.077 276.664 203.533 276.376 202.733 276.12C201.965 275.832 200.781 275.512 199.181 275.16C196.333 274.584 194.285 273.768 193.037 272.712C191.821 271.656 191.213 270.2 191.213 268.344C191.213 266.936 191.629 265.672 192.461 264.552C193.293 263.4 194.429 262.52 195.868 261.912C197.341 261.272 199.005 260.952 200.861 260.952C202.205 260.952 203.501 261.128 204.749 261.48C205.997 261.8 207.117 262.28 208.109 262.92C209.133 263.56 209.645 264.408 209.645 265.464C209.645 266.104 209.469 266.648 209.117 267.096C208.765 267.512 208.333 267.72 207.821 267.72C207.469 267.72 207.117 267.656 206.765 267.528C206.445 267.368 206.029 267.144 205.517 266.856C204.589 266.376 203.789 266.024 203.117 265.8C202.445 265.544 201.613 265.416 200.621 265.416C199.437 265.416 198.493 265.656 197.789 266.136C197.117 266.616 196.781 267.272 196.781 268.104C196.781 268.904 197.133 269.512 197.837 269.928C198.541 270.344 199.901 270.76 201.917 271.176C204.061 271.624 205.741 272.136 206.957 272.712C208.173 273.288 209.037 274.008 209.549 274.872C210.093 275.736 210.365 276.84 210.365 278.184C210.365 280.36 209.453 282.104 207.629 283.416C205.837 284.728 203.437 285.384 200.429 285.384Z" fill="#265227"/>
</svg>
