<svg width="46" height="32" viewBox="0 0 46 32" fill="none" xmlns="http://www.w3.org/2000/svg">
<path d="M46 32H35.3846V24.8889C35.3846 23.9459 35.7574 23.0415 36.421 22.3747C37.0846 21.7079 37.9846 21.3333 38.9231 21.3333H42.4615V17.7778H35.3846V14.2222H42.4615C43.4 14.2222 44.3 14.5968 44.9636 15.2636C45.6272 15.9304 46 16.8348 46 17.7778V21.3333C46 22.2763 45.6272 23.1807 44.9636 23.8475C44.3 24.5143 43.4 24.8889 42.4615 24.8889H38.9231V28.4444H46V32ZM28.3077 24.8889H21.2308C20.2923 24.8889 19.3923 24.5143 18.7287 23.8475C18.0651 23.1807 17.6923 22.2763 17.6923 21.3333V3.55556C17.6923 2.61256 18.0651 1.70819 18.7287 1.0414C19.3923 0.374603 20.2923 0 21.2308 0H28.3077C29.2462 0 30.1462 0.374603 30.8098 1.0414C31.4734 1.70819 31.8462 2.61256 31.8462 3.55556V21.3333C31.8462 22.2763 31.4734 23.1807 30.8098 23.8475C30.1462 24.5143 29.2462 24.8889 28.3077 24.8889ZM21.2308 3.55556V21.3333H28.3077V3.55556H21.2308ZM14.1538 24.8889H3.53846C2.6 24.8889 1.69998 24.5143 1.03639 23.8475C0.372801 23.1807 0 22.2763 0 21.3333V3.55556C0 2.61256 0.372801 1.70819 1.03639 1.0414C1.69998 0.374603 2.6 0 3.53846 0H14.1538V3.55556H3.53846V21.3333H14.1538V24.8889Z" fill="#00352D"/>
</svg>
