<svg width="42" height="33" viewBox="0 0 42 33" fill="none" xmlns="http://www.w3.org/2000/svg">
<g clip-path="url(#clip0_80_566)">
<path d="M9 11H5C3.34315 11 2 12.3431 2 14V22C2 23.6569 3.34315 25 5 25H5.5M9 11V7C9 4.23858 11.2386 2 14 2H28.5C31.2614 2 33.5 4.23858 33.5 7V11M9 11H33.5M33.5 11H37C38.6569 11 40 12.3431 40 14V22C40 23.6569 38.6569 25 37 25H36.5M5.5 25V29C5.5 30.1046 6.39543 31 7.5 31V31C8.60457 31 9.5 30.1046 9.5 29V25M5.5 25H32.5M32.5 25V29C32.5 30.1046 33.3954 31 34.5 31V31C35.6046 31 36.5 30.1046 36.5 29V25M32.5 25H36.5" stroke="white" stroke-width="4"/>
<circle cx="10" cy="18" r="2.5" fill="white"/>
<circle cx="32" cy="18" r="2.5" fill="white"/>
</g>
<defs>
<clipPath id="clip0_80_566">
<rect width="42" height="33" fill="white"/>
</clipPath>
</defs>
</svg>
