<svg width="70" height="70" viewBox="0 0 70 70" fill="none" xmlns="http://www.w3.org/2000/svg">
<circle cx="35" cy="35" r="35" fill="#BACDB1"/>
<path d="M41.9198 15.0089C42.1942 15.0488 42.434 15.2241 42.5525 15.48L45.0382 20.8496L45.0415 20.8576L49.4149 30.5698C50.6576 30.1166 51.9999 29.8696 53.4 29.8696C59.8065 29.8696 65 35.0475 65 41.4348C65 47.8221 59.8065 53 53.4 53C46.9935 53 41.8 47.8221 41.8 41.4348C41.8 37.03 44.2699 33.2004 47.9042 31.2475L45.2688 25.3955L40.3597 39.4591C40.9914 40.0608 41.3857 40.9081 41.3857 41.8478C41.3857 43.2867 40.4626 44.5091 39.1751 44.9626L39.2358 45.5652H40.1429C40.6005 45.5652 40.9714 45.9351 40.9714 46.3913C40.9714 46.8475 40.6005 47.2174 40.1429 47.2174H38.4857C38.0601 47.2174 37.7036 46.8958 37.6612 46.4736L37.5236 45.1062C36.3149 44.9057 35.3278 44.0539 34.9376 42.924C34.9398 42.9304 34.9418 42.9369 34.9441 42.9434L30.0997 42.9587C29.3514 48.6257 24.4883 53 18.6 53C12.1935 53 7 47.8221 7 41.4348C7 35.0475 12.1935 29.8696 18.6 29.8696C19.9781 29.8696 21.2998 30.11 22.526 30.5496L24.6638 24.4234L21.0801 19.5435H17.3571C16.8995 19.5435 16.5286 19.1736 16.5286 18.7174C16.5286 18.2612 16.8995 17.8913 17.3571 17.8913H26.4714C26.929 17.8913 27.3 18.2612 27.3 18.7174C27.3 19.1736 26.929 19.5435 26.4714 19.5435H23.1337L25.2229 22.3888L26.6632 20.6664L26.7263 20.6003C26.8798 20.4533 27.0848 20.3696 27.3 20.3696H42.9903L41.27 16.6522H37.2429C36.7852 16.6522 36.4143 16.2823 36.4143 15.8261C36.4143 15.3699 36.7852 15 37.2429 15H41.8L41.9198 15.0089ZM18.6 31.5217C13.1087 31.5217 8.65714 35.96 8.65714 41.4348C8.65714 46.9096 13.1087 51.3478 18.6 51.3478C23.5695 51.3478 27.6862 47.7128 28.4239 42.9643L19.3509 42.9942C18.7796 42.9961 18.3783 42.435 18.566 41.897L21.9814 32.1106C20.9258 31.73 19.7874 31.5217 18.6 31.5217ZM53.4 31.5217C52.2419 31.5217 51.1307 31.7211 50.097 32.084L54.1557 41.0968L54.1865 41.175C54.3191 41.5724 54.1305 42.013 53.739 42.1883C53.3478 42.3632 52.893 42.211 52.6831 41.8486L52.6443 41.7728L48.5855 32.7609C45.5276 34.4516 43.4571 37.7016 43.4571 41.4348C43.4571 46.9096 47.9087 51.3478 53.4 51.3478C58.8913 51.3478 63.3429 46.9096 63.3429 41.4348C63.3429 35.96 58.8913 31.5217 53.4 31.5217ZM38.0714 40.1957C37.1562 40.1957 36.4143 40.9354 36.4143 41.8478C36.4143 42.5004 36.7946 43.0629 37.3456 43.3314L37.2469 42.3432L37.2429 42.2584C37.2436 41.8398 37.5621 41.4814 37.9889 41.4388C38.4156 41.3963 38.7991 41.6846 38.883 42.0947L38.896 42.1786L38.9995 43.216C39.4393 42.919 39.7286 42.4173 39.7286 41.8478C39.7286 40.9354 38.9866 40.1957 38.0714 40.1957ZM20.5136 41.3388L28.5412 41.3114C28.4966 37.6618 26.4736 34.4889 23.4921 32.8052L20.5136 41.3388ZM24.0448 31.2208C27.6714 33.1465 30.1499 36.9353 30.1976 41.3065L34.8041 41.2904C34.8032 41.2952 34.8025 41.3001 34.8016 41.3049C34.9176 40.6056 35.254 39.9806 35.737 39.5027L25.8524 26.0425L24.0448 31.2208ZM27.067 24.8993L37.1757 38.6661C37.1708 38.6675 37.166 38.6688 37.1611 38.6701C37.4504 38.5879 37.7557 38.5435 38.0714 38.5435C38.3572 38.5435 38.6347 38.5789 38.8992 38.6467C38.8957 38.6458 38.8922 38.6452 38.8887 38.6443L43.7064 24.8453L27.067 24.8993ZM26.6616 23.2488L44.2768 23.1915L43.7501 22.0217H27.6884L26.6616 23.2488Z" fill="#265227"/>
<path d="M34.7677 42.1108C34.7686 42.1227 34.7698 42.1345 34.7709 42.1463M34.7709 41.551C34.77 41.5612 34.7693 41.5714 34.7685 41.5816M35.9045 39.3478C35.8963 39.3549 35.8884 39.3624 35.8802 39.3696M36.0655 39.2171C36.0524 39.2271 36.0397 39.2376 36.0267 39.2477M36.2533 39.0856C36.231 39.1002 36.2088 39.1149 36.1869 39.13M39.8742 39.0759C39.8664 39.0708 39.8586 39.0656 39.8508 39.0606M36.4175 38.9839C36.4069 38.99 36.3965 38.9963 36.386 39.0025M39.6954 38.967C39.689 38.9634 39.6824 38.9601 39.676 38.9565M36.5947 38.8888C36.5844 38.8939 36.5743 38.8996 36.564 38.9049M39.3224 38.7879C39.3004 38.779 39.2782 38.7706 39.256 38.7621M37.0066 38.7185C36.9877 38.7249 36.9687 38.7312 36.9499 38.7379M39.1573 38.7258C39.1283 38.7157 39.0993 38.7052 39.0699 38.6959M41.9198 15.0089C42.1942 15.0488 42.434 15.2241 42.5525 15.48L45.0382 20.8496L45.0415 20.8576L49.4149 30.5698C50.6576 30.1166 51.9999 29.8696 53.4 29.8696C59.8065 29.8696 65 35.0475 65 41.4348C65 47.8221 59.8065 53 53.4 53C46.9935 53 41.8 47.8221 41.8 41.4348C41.8 37.03 44.2699 33.2004 47.9042 31.2475L45.2688 25.3955L40.3597 39.4591C40.9914 40.0608 41.3857 40.9081 41.3857 41.8478C41.3857 43.2867 40.4626 44.5091 39.1751 44.9626L39.2358 45.5652H40.1429C40.6005 45.5652 40.9714 45.9351 40.9714 46.3913C40.9714 46.8475 40.6005 47.2174 40.1429 47.2174H38.4857C38.0601 47.2174 37.7036 46.8958 37.6612 46.4736L37.5236 45.1062C36.3149 44.9057 35.3278 44.0539 34.9376 42.924C34.9398 42.9304 34.9418 42.9369 34.9441 42.9434L30.0997 42.9587C29.3514 48.6257 24.4883 53 18.6 53C12.1935 53 7 47.8221 7 41.4348C7 35.0475 12.1935 29.8696 18.6 29.8696C19.9781 29.8696 21.2998 30.11 22.526 30.5496L24.6638 24.4234L21.0801 19.5435H17.3571C16.8995 19.5435 16.5286 19.1736 16.5286 18.7174C16.5286 18.2612 16.8995 17.8913 17.3571 17.8913H26.4714C26.929 17.8913 27.3 18.2612 27.3 18.7174C27.3 19.1736 26.929 19.5435 26.4714 19.5435H23.1337L25.2229 22.3888L26.6632 20.6664L26.7263 20.6003C26.8798 20.4533 27.0848 20.3696 27.3 20.3696H42.9903L41.27 16.6522H37.2429C36.7852 16.6522 36.4143 16.2823 36.4143 15.8261C36.4143 15.3699 36.7852 15 37.2429 15H41.8L41.9198 15.0089ZM18.6 31.5217C13.1087 31.5217 8.65714 35.96 8.65714 41.4348C8.65714 46.9096 13.1087 51.3478 18.6 51.3478C23.5695 51.3478 27.6862 47.7128 28.4239 42.9643L19.3509 42.9942C18.7796 42.9961 18.3783 42.435 18.566 41.897L21.9814 32.1106C20.9258 31.73 19.7874 31.5217 18.6 31.5217ZM53.4 31.5217C52.2419 31.5217 51.1307 31.7211 50.097 32.084L54.1557 41.0968L54.1865 41.175C54.3191 41.5724 54.1305 42.013 53.739 42.1883C53.3478 42.3632 52.893 42.211 52.6831 41.8486L52.6443 41.7728L48.5855 32.7609C45.5276 34.4516 43.4571 37.7016 43.4571 41.4348C43.4571 46.9096 47.9087 51.3478 53.4 51.3478C58.8913 51.3478 63.3429 46.9096 63.3429 41.4348C63.3429 35.96 58.8913 31.5217 53.4 31.5217ZM38.0714 40.1957C37.1562 40.1957 36.4143 40.9354 36.4143 41.8478C36.4143 42.5004 36.7946 43.0629 37.3456 43.3314L37.2469 42.3432L37.2429 42.2584C37.2436 41.8398 37.5621 41.4814 37.9889 41.4388C38.4156 41.3963 38.7991 41.6846 38.883 42.0947L38.896 42.1786L38.9995 43.216C39.4393 42.919 39.7286 42.4173 39.7286 41.8478C39.7286 40.9354 38.9866 40.1957 38.0714 40.1957ZM20.5136 41.3388L28.5412 41.3114C28.4966 37.6618 26.4736 34.4889 23.4921 32.8052L20.5136 41.3388ZM24.0448 31.2208C27.6714 33.1465 30.1499 36.9353 30.1976 41.3065L34.8041 41.2904C34.8032 41.2952 34.8025 41.3001 34.8016 41.3049C34.9176 40.6056 35.254 39.9806 35.737 39.5027L25.8524 26.0425L24.0448 31.2208ZM27.067 24.8993L37.1757 38.6661C37.1708 38.6675 37.166 38.6688 37.1611 38.6701C37.4504 38.5879 37.7557 38.5435 38.0714 38.5435C38.3572 38.5435 38.6347 38.5789 38.8992 38.6467C38.8957 38.6458 38.8922 38.6452 38.8887 38.6443L43.7064 24.8453L27.067 24.8993ZM26.6616 23.2488L44.2768 23.1915L43.7501 22.0217H27.6884L26.6616 23.2488Z" stroke="#265227"/>
</svg>
