<svg width="60" height="40" viewBox="0 0 60 40" fill="none" xmlns="http://www.w3.org/2000/svg">
<path d="M35.9198 1.00887C36.1942 1.0488 36.434 1.22408 36.5525 1.48L39.0382 6.84957L39.0415 6.85763L43.4149 16.5698C44.6576 16.1166 45.9999 15.8696 47.4 15.8696C53.8065 15.8696 59 21.0475 59 27.4348C59 33.8221 53.8065 39 47.4 39C40.9935 39 35.8 33.8221 35.8 27.4348C35.8 23.03 38.2699 19.2004 41.9042 17.2475L39.2688 11.3955L34.3597 25.4591C34.9914 26.0608 35.3857 26.9081 35.3857 27.8478C35.3857 29.2867 34.4626 30.5091 33.1751 30.9626L33.2358 31.5652H34.1429C34.6005 31.5652 34.9714 31.9351 34.9714 32.3913C34.9714 32.8475 34.6005 33.2174 34.1429 33.2174H32.4857C32.0601 33.2174 31.7036 32.8958 31.6612 32.4736L31.5236 31.1062C30.3149 30.9057 29.3278 30.0539 28.9376 28.924C28.9398 28.9304 28.9418 28.9369 28.9441 28.9434L24.0997 28.9587C23.3514 34.6257 18.4883 39 12.6 39C6.1935 39 1 33.8221 1 27.4348C1 21.0475 6.1935 15.8696 12.6 15.8696C13.9781 15.8696 15.2998 16.11 16.526 16.5496L18.6638 10.4234L15.0801 5.54348H11.3571C10.8995 5.54348 10.5286 5.17363 10.5286 4.71739C10.5286 4.26116 10.8995 3.8913 11.3571 3.8913H20.4714C20.929 3.8913 21.3 4.26116 21.3 4.71739C21.3 5.17363 20.929 5.54348 20.4714 5.54348H17.1337L19.2229 8.3888L20.6632 6.66644L20.7263 6.60029C20.8798 6.45329 21.0848 6.36957 21.3 6.36957H36.9903L35.27 2.65217H31.2429C30.7852 2.65217 30.4143 2.28232 30.4143 1.82609C30.4143 1.36985 30.7852 1 31.2429 1H35.8L35.9198 1.00887ZM12.6 17.5217C7.10871 17.5217 2.65714 21.96 2.65714 27.4348C2.65714 32.9096 7.10871 37.3478 12.6 37.3478C17.5695 37.3478 21.6862 33.7128 22.4239 28.9643L13.3509 28.9942C12.7796 28.9961 12.3783 28.435 12.566 27.897L15.9814 18.1106C14.9258 17.73 13.7874 17.5217 12.6 17.5217ZM47.4 17.5217C46.2419 17.5217 45.1307 17.7211 44.097 18.084L48.1557 27.0968L48.1865 27.175C48.3191 27.5724 48.1305 28.013 47.739 28.1883C47.3478 28.3632 46.893 28.211 46.6831 27.8486L46.6443 27.7728L42.5855 18.7609C39.5276 20.4516 37.4571 23.7016 37.4571 27.4348C37.4571 32.9096 41.9087 37.3478 47.4 37.3478C52.8913 37.3478 57.3429 32.9096 57.3429 27.4348C57.3429 21.96 52.8913 17.5217 47.4 17.5217ZM32.0714 26.1957C31.1562 26.1957 30.4143 26.9354 30.4143 27.8478C30.4143 28.5004 30.7946 29.0629 31.3456 29.3314L31.2469 28.3432L31.2429 28.2584C31.2436 27.8398 31.5621 27.4814 31.9889 27.4388C32.4156 27.3963 32.7991 27.6846 32.883 28.0947L32.896 28.1786L32.9995 29.216C33.4393 28.919 33.7286 28.4173 33.7286 27.8478C33.7286 26.9354 32.9866 26.1957 32.0714 26.1957ZM14.5136 27.3388L22.5412 27.3114C22.4966 23.6618 20.4736 20.4889 17.4921 18.8052L14.5136 27.3388ZM18.0448 17.2208C21.6714 19.1465 24.1499 22.9353 24.1976 27.3065L28.8041 27.2904C28.8032 27.2952 28.8025 27.3001 28.8016 27.3049C28.9176 26.6056 29.254 25.9806 29.737 25.5027L19.8524 12.0425L18.0448 17.2208ZM21.067 10.8993L31.1757 24.6661C31.1708 24.6675 31.166 24.6688 31.1611 24.6701C31.4504 24.5879 31.7557 24.5435 32.0714 24.5435C32.3572 24.5435 32.6347 24.5789 32.8992 24.6467C32.8957 24.6458 32.8922 24.6452 32.8887 24.6443L37.7064 10.8453L21.067 10.8993ZM20.6616 9.24877L38.2768 9.19149L37.7501 8.02174H21.6884L20.6616 9.24877Z" fill="#265227"/>
<path d="M28.7677 28.1108C28.7686 28.1227 28.7698 28.1345 28.7709 28.1463M28.7709 27.551C28.77 27.5612 28.7693 27.5714 28.7685 27.5816M29.9045 25.3478C29.8963 25.3549 29.8884 25.3624 29.8802 25.3696M30.0655 25.2171C30.0524 25.2271 30.0397 25.2376 30.0267 25.2477M30.2533 25.0856C30.231 25.1002 30.2088 25.1149 30.1869 25.13M33.8742 25.0759C33.8664 25.0708 33.8586 25.0656 33.8508 25.0606M30.4175 24.9839C30.4069 24.99 30.3965 24.9963 30.386 25.0025M33.6954 24.967C33.689 24.9634 33.6824 24.9601 33.676 24.9565M30.5947 24.8888C30.5844 24.8939 30.5743 24.8996 30.564 24.9049M33.3224 24.7879C33.3004 24.779 33.2782 24.7706 33.256 24.7621M31.0066 24.7185C30.9877 24.7249 30.9687 24.7312 30.9499 24.7379M33.1573 24.7258C33.1283 24.7157 33.0993 24.7052 33.0699 24.6959M35.9198 1.00887C36.1942 1.0488 36.434 1.22408 36.5525 1.48L39.0382 6.84957L39.0415 6.85763L43.4149 16.5698C44.6576 16.1166 45.9999 15.8696 47.4 15.8696C53.8065 15.8696 59 21.0475 59 27.4348C59 33.8221 53.8065 39 47.4 39C40.9935 39 35.8 33.8221 35.8 27.4348C35.8 23.03 38.2699 19.2004 41.9042 17.2475L39.2688 11.3955L34.3597 25.4591C34.9914 26.0608 35.3857 26.9081 35.3857 27.8478C35.3857 29.2867 34.4626 30.5091 33.1751 30.9626L33.2358 31.5652H34.1429C34.6005 31.5652 34.9714 31.9351 34.9714 32.3913C34.9714 32.8475 34.6005 33.2174 34.1429 33.2174H32.4857C32.0601 33.2174 31.7036 32.8958 31.6612 32.4736L31.5236 31.1062C30.3149 30.9057 29.3278 30.0539 28.9376 28.924C28.9398 28.9304 28.9418 28.9369 28.9441 28.9434L24.0997 28.9587C23.3514 34.6257 18.4883 39 12.6 39C6.1935 39 1 33.8221 1 27.4348C1 21.0475 6.1935 15.8696 12.6 15.8696C13.9781 15.8696 15.2998 16.11 16.526 16.5496L18.6638 10.4234L15.0801 5.54348H11.3571C10.8995 5.54348 10.5286 5.17363 10.5286 4.71739C10.5286 4.26116 10.8995 3.8913 11.3571 3.8913H20.4714C20.929 3.8913 21.3 4.26116 21.3 4.71739C21.3 5.17363 20.929 5.54348 20.4714 5.54348H17.1337L19.2229 8.3888L20.6632 6.66644L20.7263 6.60029C20.8798 6.45329 21.0848 6.36957 21.3 6.36957H36.9903L35.27 2.65217H31.2429C30.7852 2.65217 30.4143 2.28232 30.4143 1.82609C30.4143 1.36985 30.7852 1 31.2429 1H35.8L35.9198 1.00887ZM12.6 17.5217C7.10871 17.5217 2.65714 21.96 2.65714 27.4348C2.65714 32.9096 7.10871 37.3478 12.6 37.3478C17.5695 37.3478 21.6862 33.7128 22.4239 28.9643L13.3509 28.9942C12.7796 28.9961 12.3783 28.435 12.566 27.897L15.9814 18.1106C14.9258 17.73 13.7874 17.5217 12.6 17.5217ZM47.4 17.5217C46.2419 17.5217 45.1307 17.7211 44.097 18.084L48.1557 27.0968L48.1865 27.175C48.3191 27.5724 48.1305 28.013 47.739 28.1883C47.3478 28.3632 46.893 28.211 46.6831 27.8486L46.6443 27.7728L42.5855 18.7609C39.5276 20.4516 37.4571 23.7016 37.4571 27.4348C37.4571 32.9096 41.9087 37.3478 47.4 37.3478C52.8913 37.3478 57.3429 32.9096 57.3429 27.4348C57.3429 21.96 52.8913 17.5217 47.4 17.5217ZM32.0714 26.1957C31.1562 26.1957 30.4143 26.9354 30.4143 27.8478C30.4143 28.5004 30.7946 29.0629 31.3456 29.3314L31.2469 28.3432L31.2429 28.2584C31.2436 27.8398 31.5621 27.4814 31.9889 27.4388C32.4156 27.3963 32.7991 27.6846 32.883 28.0947L32.896 28.1786L32.9995 29.216C33.4393 28.919 33.7286 28.4173 33.7286 27.8478C33.7286 26.9354 32.9866 26.1957 32.0714 26.1957ZM14.5136 27.3388L22.5412 27.3114C22.4966 23.6618 20.4736 20.4889 17.4921 18.8052L14.5136 27.3388ZM18.0448 17.2208C21.6714 19.1465 24.1499 22.9353 24.1976 27.3065L28.8041 27.2904C28.8032 27.2952 28.8025 27.3001 28.8016 27.3049C28.9176 26.6056 29.254 25.9806 29.737 25.5027L19.8524 12.0425L18.0448 17.2208ZM21.067 10.8993L31.1757 24.6661C31.1708 24.6675 31.166 24.6688 31.1611 24.6701C31.4504 24.5879 31.7557 24.5435 32.0714 24.5435C32.3572 24.5435 32.6347 24.5789 32.8992 24.6467C32.8957 24.6458 32.8922 24.6452 32.8887 24.6443L37.7064 10.8453L21.067 10.8993ZM20.6616 9.24877L38.2768 9.19149L37.7501 8.02174H21.6884L20.6616 9.24877Z" stroke="#265227"/>
</svg>
