<svg width="70" height="70" viewBox="0 0 70 70" fill="none" xmlns="http://www.w3.org/2000/svg">
<circle cx="35" cy="34.9995" r="35" fill="#BACDB1"/>
<g clip-path="url(#clip0_69_676)">
<path d="M23 29H19C17.3431 29 16 30.3431 16 32V40C16 41.6569 17.3431 43 19 43H19.5M23 29V25C23 22.2386 25.2386 20 28 20H42.5C45.2614 20 47.5 22.2386 47.5 25V29M23 29H47.5M47.5 29H51C52.6569 29 54 30.3431 54 32V40C54 41.6569 52.6569 43 51 43H50.5M19.5 43V47C19.5 48.1046 20.3954 49 21.5 49V49C22.6046 49 23.5 48.1046 23.5 47V43M19.5 43H46.5M46.5 43V47C46.5 48.1046 47.3954 49 48.5 49V49C49.6046 49 50.5 48.1046 50.5 47V43M46.5 43H50.5" stroke="#265227" stroke-width="4"/>
<circle cx="24" cy="36" r="2.5" fill="#265227"/>
<circle cx="46" cy="36" r="2.5" fill="#265227"/>
</g>
<defs>
<clipPath id="clip0_69_676">
<rect width="42" height="33" fill="white" transform="translate(14 18)"/>
</clipPath>
</defs>
</svg>
