<svg width="49" height="34" viewBox="0 0 49 34" fill="none" xmlns="http://www.w3.org/2000/svg">
<g clip-path="url(#clip0_69_687)">
<path d="M2.5 14.3201V25.6402C2.5 26.1925 2.94772 26.6402 3.5 26.6402H8.5C8.5 33.5 17.5 33.5 17.5 26.6402H30.5C30.5 33.5 39.5 33.5 39.5 26.6402H45C45.5523 26.6402 46 26.1924 46 25.6402V14.3201M2.5 14.3201V5C2.5 3.34315 3.84315 2 5.5 2H15M2.5 14.3201H15M15 14.3201V2M15 14.3201H25.5M15 2H25.5M25.5 14.3201V2M25.5 14.3201H36.5M25.5 2H36.5M36.5 14.3201V2M36.5 14.3201H46M36.5 2H40C43.3137 2 46 4.68629 46 8V14.3201" stroke="#373737" stroke-width="4"/>
</g>
<defs>
<clipPath id="clip0_69_687">
<rect width="48" height="34" fill="white" transform="translate(0.5)"/>
</clipPath>
</defs>
</svg>
